<svg id="Layer_1" data-name="Layer 1" xmlns="http://www.w3.org/2000/svg" width="467.2499mm" height="168.5009mm" viewBox="0 0 1324.488 477.6403"><defs><style>.cls-1,.cls-2,.cls-3{fill:none;}.cls-1{stroke:#c2c2c2;}.cls-1,.cls-3{stroke-linecap:round;stroke-linejoin:round;}.cls-1,.cls-2{stroke-width:0.7087px;}.cls-2{stroke:#c1c230;stroke-miterlimit:10;}.cls-3{stroke:#000;stroke-width:0.7087px;}</style></defs><path class="cls-1" d="M582.3322,1073.9346l.6029-2.4185-126.8678-31.6314a4.252,4.252,0,0,1-3.0969-5.1546l12.038-48.2716-24.2808-6.0557V980.6a4.252,4.252,0,0,1-4.252,4.252h-9.248V1034.6a4.252,4.252,0,0,1-4.252,4.252H293.6446a4.252,4.252,0,0,1-4.252-4.252v-49.748h-22.748a4.252,4.252,0,0,1-4.252-4.252V932.27a4.2519,4.2519,0,0,1,4.252-4.2519h36.1543V878.27a4.252,4.252,0,0,1,4.252-4.252h22.8417V824.27a4.252,4.252,0,0,1,4.252-4.252h36.248V770.27a4.252,4.252,0,0,1,4.252-4.252h102.331a4.252,4.252,0,0,1,4.252,4.252v39.5458l9.4959-38.1a4.252,4.252,0,0,1,5.1548-3.0973l48.2692,12.04.6049-2.4268a4.252,4.252,0,0,1,5.1543-3.0974l46.8935,11.69a4.2519,4.2519,0,0,1,3.0972,5.1541l-.6049,2.4266,48.2748,12.0386a4.2519,4.2519,0,0,1,3.0968,5.1544l-.6035,2.42,48.267,12.0385a4.2521,4.2521,0,0,1,3.0968,5.1541L689.0489,880.854,675.981,933.2485l-12.7182,51.02,48.2694,12.0386a4.2519,4.2519,0,0,1,3.0968,5.1539l-12.3745,49.6444-12.3827,49.6443a4.252,4.252,0,0,1-5.1543,3.0966l-99.2883-24.7572A4.2519,4.2519,0,0,1,582.3322,1073.9346Z" transform="translate(-238.195 -661.6677)"/><path class="cls-1" d="M744.4558,760.558l48.2684-12.0326-.605-2.4254a4.252,4.252,0,0,1,3.0972-5.1549l48.2744-12.032-.6049-2.4266a4.2519,4.2519,0,0,1,3.0972-5.1541l46.8938-11.69a4.252,4.252,0,0,1,5.154,3.0967l.6039,2.4209,48.2708-12.0336a4.252,4.252,0,0,1,5.1541,3.0967l11.6959,46.8937a4.252,4.252,0,0,1-3.0973,5.1547l-46.9,11.69a4.252,4.252,0,0,1-5.1541-3.0973l-.6029-2.4184-49.646,12.374.6049,2.4266a4.2519,4.2519,0,0,1-3.0973,5.1541l-48.2683,12.0321.6051,2.426a4.252,4.252,0,0,1-3.0973,5.1548l-46.9,11.6893a4.252,4.252,0,0,1-5.154-3.0972l-11.69-46.8929A4.2519,4.2519,0,0,1,744.4558,760.558Z" transform="translate(-238.195 -661.6677)"/><rect class="cls-1" x="840.9442" y="36.8499" width="110.834" height="56.835" rx="4.252"/><rect class="cls-1" x="726.1981" y="36.8499" width="110.834" height="56.835" rx="4.252"/><path class="cls-1" d="M302.8926,751.1006V702.7738a4.2562,4.2562,0,0,1,4.2562-4.2562h48.3268a4.252,4.252,0,0,1,4.252,4.252v48.331a4.252,4.252,0,0,1-4.252,4.252h-48.331A4.252,4.252,0,0,1,302.8926,751.1006Z" transform="translate(-238.195 -661.6677)"/><rect class="cls-1" x="145.6976" y="36.8499" width="110.835" height="56.835" rx="4.252"/><path class="cls-1" d="M666.3887,748.5254l.6049-2.4257a4.2519,4.2519,0,0,0-3.0973-5.1545l-48.2742-12.0321.6049-2.4266a4.2519,4.2519,0,0,0-3.0972-5.1541l-46.8937-11.69a4.252,4.252,0,0,0-5.1542,3.0972l-.6033,2.42-48.2713-12.0335a4.2519,4.2519,0,0,0-5.1542,3.0972l-11.69,46.8936a4.2519,4.2519,0,0,0,3.0972,5.1542l46.8936,11.69a4.252,4.252,0,0,0,5.1542-3.0973l.6033-2.42,49.6451,12.3755-.6049,2.4266a4.2519,4.2519,0,0,0,3.0973,5.1541l48.2688,12.0321-.6051,2.426a4.252,4.252,0,0,0,3.0973,5.1548l46.9,11.6893a4.2519,4.2519,0,0,0,5.154-3.0972l11.69-46.8928a4.252,4.252,0,0,0-3.0973-5.1542Z" transform="translate(-238.195 -661.6677)"/><rect class="cls-1" x="955.6981" y="36.8499" width="110.834" height="56.835" rx="4.252"/><rect class="cls-1" x="1077.1981" y="36.8499" width="218.834" height="56.835" rx="4.252"/><rect class="cls-1" x="1077.1981" y="104.3499" width="218.834" height="272.8345" rx="4.252"/><path class="cls-1" d="M756.8663,1051.105l-12.3822-49.6439a4.2521,4.2521,0,0,1,3.0967-5.1546L795.85,984.2681l-12.7178-51.02L770.064,880.854,757.6886,831.21a4.252,4.252,0,0,1,3.0967-5.1541l48.267-12.0385-.6036-2.4195a4.252,4.252,0,0,1,3.0967-5.1548l48.275-12.0385-.6048-2.4268a4.2519,4.2519,0,0,1,3.0973-5.1538l46.8939-11.69a4.2521,4.2521,0,0,1,5.154,3.0964l.6056,2.4271,48.2688-12.0393a4.252,4.252,0,0,1,5.1546,3.0967l9.5033,38.1067V770.27a4.252,4.252,0,0,1,4.252-4.252h264.33a4.252,4.252,0,0,1,4.252,4.252v48.331a4.252,4.252,0,0,1-4.252,4.252h-9.248V928.0181h9.248a4.2519,4.2519,0,0,1,4.252,4.2519v49.7481h49.748a4.2519,4.2519,0,0,1,4.252,4.2519v48.33a4.252,4.252,0,0,1-4.252,4.252h-291.33a4.252,4.252,0,0,1-4.252-4.252v-50.832L967.91,992.9927l12.0322,48.268a4.2521,4.2521,0,0,1-3.0972,5.1541l-61.37,15.3005.6034,2.42a4.252,4.252,0,0,1-3.097,5.1541l-138.5851,34.5558a4.2519,4.2519,0,0,1-5.1544-3.0972Z" transform="translate(-238.195 -661.6677)"/><path class="cls-2" d="M1556.66,662.0259l-772.4436-.0039-539.9968.0038a5.6694,5.6694,0,0,0-5.6692,5.6693l-.0005,399.6839a5.6693,5.6693,0,0,0,5.6694,5.6693l177.56-.0029,258.15,65.049a28.3429,28.3429,0,0,0,6.9263.8592h84.605a28.3483,28.3483,0,0,0,6.9017-.853l259.1521-65.0552,519.1462.0029a5.6693,5.6693,0,0,0,5.6693-5.6693V667.6951A5.6692,5.6692,0,0,0,1556.66,662.0259Z" transform="translate(-238.195 -661.6677)"/><g id="SPLINE"><circle class="cls-3" cx="14.5267" cy="14.5267" r="3.8268"/></g><g id="SPLINE-2" data-name="SPLINE"><circle class="cls-3" cx="14.5276" cy="397.2065" r="3.8268"/></g><g id="SPLINE-3" data-name="SPLINE"><circle class="cls-3" cx="332.4768" cy="434.1752" r="3.8268"/></g><g id="SPLINE-4" data-name="SPLINE"><circle class="cls-3" cx="650.4259" cy="434.0956" r="3.8268"/></g><g id="SPLINE-5" data-name="SPLINE"><circle class="cls-3" cx="968.374" cy="397.2304" r="3.8268"/></g><g id="SPLINE-6" data-name="SPLINE"><circle class="cls-3" cx="1309.9613" cy="397.2068" r="3.8268"/></g><g id="SPLINE-7" data-name="SPLINE"><circle class="cls-3" cx="1309.8251" cy="14.6661" r="3.8268"/></g><g id="SPLINE-8" data-name="SPLINE"><circle class="cls-3" cx="968.374" cy="14.6661" r="3.8268"/></g><g id="SPLINE-9" data-name="SPLINE"><circle class="cls-3" cx="650.4259" cy="14.6661" r="3.8268"/></g><g id="SPLINE-10" data-name="SPLINE"><circle class="cls-3" cx="332.4747" cy="14.5267" r="3.8268"/></g></svg>