<svg id="Layer_1" data-name="Layer 1" xmlns="http://www.w3.org/2000/svg" width="471.2498mm" height="172.5008mm" viewBox="0 0 1335.8263 488.9787"><defs><style>.cls-1,.cls-2,.cls-3{fill:none;}.cls-1{stroke:#c2c2c2;}.cls-1,.cls-3{stroke-linecap:round;stroke-linejoin:round;}.cls-1,.cls-2{stroke-width:0.7087px;}.cls-2{stroke:#c1c230;stroke-miterlimit:10;}.cls-3{stroke:#000;stroke-width:0.7087px;}</style></defs><path class="cls-1" d="M582.3325,1073.9348l.6029-2.4184-126.8678-31.6315a4.252,4.252,0,0,1-3.097-5.1545l12.038-48.2716-24.2808-6.0557V980.6a4.2519,4.2519,0,0,1-4.2519,4.252h-9.2481V1034.6a4.2519,4.2519,0,0,1-4.2519,4.252H293.6449a4.252,4.252,0,0,1-4.252-4.252v-49.748h-22.748a4.252,4.252,0,0,1-4.252-4.252V932.27a4.252,4.252,0,0,1,4.252-4.252h36.1542V878.27a4.252,4.252,0,0,1,4.252-4.252h22.8418V824.27a4.252,4.252,0,0,1,4.252-4.252h36.248V770.27a4.252,4.252,0,0,1,4.252-4.252h102.331a4.2519,4.2519,0,0,1,4.2519,4.252v39.5459l9.496-38.1a4.252,4.252,0,0,1,5.1548-3.0973l48.2692,12.04.6049-2.4269a4.2519,4.2519,0,0,1,5.1542-3.0973l46.8935,11.69a4.2521,4.2521,0,0,1,3.0973,5.1542l-.6049,2.4266,48.2747,12.0385a4.252,4.252,0,0,1,3.0968,5.1545l-.6034,2.42,48.267,12.0386a4.2519,4.2519,0,0,1,3.0967,5.154l-12.3755,49.6444-13.0678,52.3945L663.263,984.2683l48.2695,12.0386a4.252,4.252,0,0,1,3.0968,5.154l-12.3746,49.6443L689.872,1100.75a4.2519,4.2519,0,0,1-5.1543,3.0966L585.43,1079.089A4.252,4.252,0,0,1,582.3325,1073.9348Z" transform="translate(-232.5259 -655.9985)"/><path class="cls-1" d="M744.4561,760.5582l48.2683-12.0326-.605-2.4254a4.252,4.252,0,0,1,3.0973-5.1548l48.2743-12.0321-.6049-2.4266a4.252,4.252,0,0,1,3.0973-5.1541l46.8937-11.69a4.2519,4.2519,0,0,1,5.1541,3.0966l.6039,2.4209,48.2707-12.0336a4.2519,4.2519,0,0,1,5.1541,3.0967l11.6959,46.8937a4.2519,4.2519,0,0,1-3.0972,5.1547l-46.9,11.69a4.2519,4.2519,0,0,1-5.154-3.0972l-.6029-2.4184-49.646,12.374.6048,2.4265a4.252,4.252,0,0,1-3.0972,5.1542L807.595,796.4324l.6051,2.4259a4.252,4.252,0,0,1-3.0973,5.1548l-46.9,11.6894a4.252,4.252,0,0,1-5.154-3.0973l-11.69-46.8928A4.2518,4.2518,0,0,1,744.4561,760.5582Z" transform="translate(-232.5259 -655.9985)"/><rect class="cls-1" x="846.6136" y="42.5194" width="110.834" height="56.835" rx="4.252"/><rect class="cls-1" x="731.8675" y="42.5194" width="110.834" height="56.835" rx="4.252"/><path class="cls-1" d="M302.8929,751.1008V702.774a4.2562,4.2562,0,0,1,4.2561-4.2562h48.3269a4.2519,4.2519,0,0,1,4.2519,4.252v48.331a4.2519,4.2519,0,0,1-4.2519,4.252h-48.331A4.252,4.252,0,0,1,302.8929,751.1008Z" transform="translate(-232.5259 -655.9985)"/><rect class="cls-1" x="151.367" y="42.5194" width="110.835" height="56.835" rx="4.252"/><path class="cls-1" d="M666.389,748.5256l.6049-2.4256a4.2521,4.2521,0,0,0-3.0974-5.1546l-48.2741-12.0321.6049-2.4265a4.2521,4.2521,0,0,0-3.0973-5.1542l-46.8936-11.69a4.252,4.252,0,0,0-5.1542,3.0973l-.6033,2.42-48.2713-12.0335a4.252,4.252,0,0,0-5.1542,3.0973l-11.69,46.8936a4.2519,4.2519,0,0,0,3.0972,5.1541l46.8936,11.69a4.2522,4.2522,0,0,0,5.1543-3.0972l.6033-2.42,49.645,12.3756-.6048,2.4265A4.252,4.252,0,0,0,603.25,784.4l48.2688,12.0321-.6051,2.426a4.2519,4.2519,0,0,0,3.0972,5.1547l46.9,11.6894a4.252,4.252,0,0,0,5.154-3.0973l11.69-46.8928a4.2519,4.2519,0,0,0-3.0972-5.1542Z" transform="translate(-232.5259 -655.9985)"/><rect class="cls-1" x="961.3675" y="42.5194" width="110.834" height="56.835" rx="4.252"/><rect class="cls-1" x="1082.8675" y="42.5194" width="218.834" height="56.835" rx="4.252"/><rect class="cls-1" x="1082.8675" y="110.0194" width="218.834" height="272.8345" rx="4.252"/><path class="cls-1" d="M756.8665,1051.1052l-12.3821-49.6439a4.2518,4.2518,0,0,1,3.0966-5.1545L795.85,984.2683l-12.7178-51.0195-13.0678-52.3945L757.6888,831.21a4.2519,4.2519,0,0,1,3.0967-5.154l48.267-12.0386-.6035-2.4195a4.252,4.252,0,0,1,3.0967-5.1548l48.2749-12.0384-.6047-2.4268a4.252,4.252,0,0,1,3.0973-5.1539l46.8938-11.69a4.252,4.252,0,0,1,5.154,3.0963l.6056,2.4272,48.2688-12.0393a4.252,4.252,0,0,1,5.1547,3.0967l9.5033,38.1066V770.27a4.2519,4.2519,0,0,1,4.2519-4.252h264.33a4.252,4.252,0,0,1,4.252,4.252v48.331a4.252,4.252,0,0,1-4.252,4.252h-9.248V928.0183h9.248a4.252,4.252,0,0,1,4.252,4.252v49.748h49.748a4.252,4.252,0,0,1,4.252,4.252v48.33a4.252,4.252,0,0,1-4.252,4.252h-291.33a4.2519,4.2519,0,0,1-4.2519-4.252v-50.832L967.91,992.9929l12.0321,48.268a4.2519,4.2519,0,0,1-3.0971,5.1541l-61.3706,15.3006.6034,2.42a4.252,4.252,0,0,1-3.097,5.1542l-138.585,34.5558a4.252,4.252,0,0,1-5.1545-3.0972Z" transform="translate(-232.5259 -655.9985)"/><path class="cls-2" d="M686.8548,1144.6228a34.0844,34.0844,0,0,1-8.311-1.03L421.075,1078.7146l-176.8559.0029A11.3512,11.3512,0,0,1,232.88,1067.38l0-399.6841A11.3521,11.3521,0,0,1,244.22,656.3567l539.9966-.0039,772.4439.0039a11.3513,11.3513,0,0,1,11.3379,11.3389V1067.38a11.35,11.35,0,0,1-11.3379,11.3378l-518.4463-.0029-258.4722,64.8848a34.0362,34.0362,0,0,1-8.2817,1.0234Z" transform="translate(-232.5259 -655.9985)"/><g id="SPLINE"><circle class="cls-3" cx="20.1961" cy="20.1961" r="3.8268"/></g><g id="SPLINE-2" data-name="SPLINE"><circle class="cls-3" cx="20.197" cy="402.8759" r="3.8268"/></g><g id="SPLINE-3" data-name="SPLINE"><circle class="cls-3" cx="338.1462" cy="439.8447" r="3.8268"/></g><g id="SPLINE-4" data-name="SPLINE"><circle class="cls-3" cx="656.0954" cy="439.7651" r="3.8268"/></g><g id="SPLINE-5" data-name="SPLINE"><circle class="cls-3" cx="974.0434" cy="402.8999" r="3.8268"/></g><g id="SPLINE-6" data-name="SPLINE"><circle class="cls-3" cx="1315.6307" cy="402.8762" r="3.8268"/></g><g id="SPLINE-7" data-name="SPLINE"><circle class="cls-3" cx="1315.4945" cy="20.3355" r="3.8268"/></g><g id="SPLINE-8" data-name="SPLINE"><circle class="cls-3" cx="974.0434" cy="20.3355" r="3.8268"/></g><g id="SPLINE-9" data-name="SPLINE"><circle class="cls-3" cx="656.0954" cy="20.3355" r="3.8268"/></g><g id="SPLINE-10" data-name="SPLINE"><circle class="cls-3" cx="338.1442" cy="20.1961" r="3.8268"/></g></svg>