<svg id="Layer_1" data-name="Layer 1" xmlns="http://www.w3.org/2000/svg" width="475.2499mm" height="176.5009mm" viewBox="0 0 1347.1652 500.3175"><defs><style>.cls-1,.cls-2,.cls-3{fill:none;}.cls-1{stroke:#c2c2c2;}.cls-1,.cls-3{stroke-linecap:round;stroke-linejoin:round;}.cls-1,.cls-2{stroke-width:0.7087px;}.cls-2{stroke:#c1c230;stroke-miterlimit:10;}.cls-3{stroke:#000;stroke-width:0.7087px;}</style></defs><path class="cls-1" d="M582.332,1073.9343l.6029-2.4184-126.8678-31.6315a4.252,4.252,0,0,1-3.097-5.1545l12.038-48.2716-24.2807-6.0557V980.6a4.252,4.252,0,0,1-4.252,4.2519h-9.248V1034.6a4.252,4.252,0,0,1-4.252,4.2519H293.6444a4.252,4.252,0,0,1-4.252-4.2519V984.8518h-22.748a4.252,4.252,0,0,1-4.252-4.2519V932.27a4.252,4.252,0,0,1,4.252-4.252h36.1542V878.2693a4.252,4.252,0,0,1,4.252-4.252h22.8418v-49.748a4.252,4.252,0,0,1,4.252-4.252h36.248v-49.748a4.252,4.252,0,0,1,4.252-4.252h102.331a4.252,4.252,0,0,1,4.252,4.252v39.5459l9.4959-38.1a4.252,4.252,0,0,1,5.1548-3.0973l48.2692,12.04.6049-2.4269a4.2519,4.2519,0,0,1,5.1542-3.0973l46.8936,11.69a4.252,4.252,0,0,1,3.0972,5.1542l-.6049,2.4266,48.2747,12.0385a4.252,4.252,0,0,1,3.0968,5.1545l-.6034,2.42,48.267,12.0385a4.2519,4.2519,0,0,1,3.0967,5.154l-12.3755,49.6444-13.0678,52.3945-12.7183,51.0195,48.2695,12.0386a4.252,4.252,0,0,1,3.0968,5.154l-12.3746,49.6443-12.3827,49.6443a4.2517,4.2517,0,0,1-5.1542,3.0966l-99.2883-24.7571A4.252,4.252,0,0,1,582.332,1073.9343Z" transform="translate(-226.8564 -650.329)"/><path class="cls-1" d="M744.4556,760.5577l48.2683-12.0325-.605-2.4255a4.252,4.252,0,0,1,3.0973-5.1548l48.2743-12.032-.6048-2.4266a4.2519,4.2519,0,0,1,3.0972-5.1542l46.8937-11.69a4.252,4.252,0,0,1,5.1541,3.0966l.6039,2.4209,48.2707-12.0336a4.2519,4.2519,0,0,1,5.1541,3.0967l11.6959,46.8937a4.2519,4.2519,0,0,1-3.0972,5.1547l-46.9,11.69a4.2519,4.2519,0,0,1-5.154-3.0972l-.6029-2.4184-49.646,12.374.6049,2.4265a4.2521,4.2521,0,0,1-3.0973,5.1542l-48.2684,12.0321.6051,2.426a4.2519,4.2519,0,0,1-3.0972,5.1547l-46.9,11.6894a4.252,4.252,0,0,1-5.154-3.0973l-11.69-46.8928A4.2519,4.2519,0,0,1,744.4556,760.5577Z" transform="translate(-226.8564 -650.329)"/><rect class="cls-1" x="852.2826" y="48.1883" width="110.834" height="56.835" rx="4.252"/><rect class="cls-1" x="737.5365" y="48.1883" width="110.834" height="56.835" rx="4.252"/><path class="cls-1" d="M302.8924,751.1V702.7735a4.2562,4.2562,0,0,1,4.2562-4.2562h48.3268a4.252,4.252,0,0,1,4.252,4.252V751.1a4.252,4.252,0,0,1-4.252,4.252h-48.331A4.252,4.252,0,0,1,302.8924,751.1Z" transform="translate(-226.8564 -650.329)"/><rect class="cls-1" x="157.036" y="48.1883" width="110.835" height="56.835" rx="4.252"/><path class="cls-1" d="M666.3885,748.5252l.6049-2.4257a4.252,4.252,0,0,0-3.0973-5.1545l-48.2742-12.0321.6049-2.4266a4.252,4.252,0,0,0-3.0973-5.1542l-46.8936-11.69a4.252,4.252,0,0,0-5.1542,3.0973l-.6033,2.42-48.2713-12.0335a4.252,4.252,0,0,0-5.1542,3.0973l-11.69,46.8936a4.2519,4.2519,0,0,0,3.0972,5.1541l46.8937,11.69a4.252,4.252,0,0,0,5.1542-3.0972l.6033-2.42,49.6451,12.3755-.6049,2.4265a4.252,4.252,0,0,0,3.0973,5.1542l48.2688,12.0321-.6051,2.426a4.2519,4.2519,0,0,0,3.0973,5.1547l46.9,11.6894a4.252,4.252,0,0,0,5.154-3.0973l11.69-46.8928a4.252,4.252,0,0,0-3.0972-5.1542Z" transform="translate(-226.8564 -650.329)"/><rect class="cls-1" x="967.0365" y="48.1883" width="110.834" height="56.835" rx="4.252"/><rect class="cls-1" x="1088.5365" y="48.1883" width="218.834" height="56.835" rx="4.252"/><rect class="cls-1" x="1088.5365" y="115.6883" width="218.834" height="272.8345" rx="4.252"/><path class="cls-1" d="M756.866,1051.1047l-12.3821-49.6438a4.2519,4.2519,0,0,1,3.0966-5.1546l48.2689-12.0385-12.7177-51.0195-13.0679-52.3945-12.3755-49.6444a4.252,4.252,0,0,1,3.0967-5.154l48.2671-12.0385-.6036-2.42a4.2521,4.2521,0,0,1,3.0967-5.1548L859.82,794.4041l-.6047-2.4268a4.252,4.252,0,0,1,3.0973-5.1539l46.8938-11.69a4.252,4.252,0,0,1,5.154,3.0963l.6056,2.4272,48.2688-12.0393a4.252,4.252,0,0,1,5.1547,3.0967l9.5033,38.1067V770.2693a4.252,4.252,0,0,1,4.252-4.252h264.33a4.252,4.252,0,0,1,4.252,4.252V818.6a4.252,4.252,0,0,1-4.252,4.252h-9.248V928.0178h9.248a4.252,4.252,0,0,1,4.252,4.252v49.748h49.748a4.252,4.252,0,0,1,4.252,4.252v48.33a4.252,4.252,0,0,1-4.252,4.2519h-291.33a4.252,4.252,0,0,1-4.252-4.2519V983.7678L967.91,992.9924l12.0321,48.268a4.252,4.252,0,0,1-3.0971,5.1542l-61.3706,15.3.6034,2.42a4.252,4.252,0,0,1-3.097,5.1542l-138.585,34.5558a4.252,4.252,0,0,1-5.1545-3.0972Z" transform="translate(-226.8564 -650.329)"/><path class="cls-2" d="M686.8543,1150.2922a39.7388,39.7388,0,0,1-9.6953-1.2031L420.3714,1084.384l-176.1528.003a17.0273,17.0273,0,0,1-17.0078-17.0078l0-399.6841a17.0275,17.0275,0,0,1,17.0079-17.0083l539.9965-.0034,772.4439.0034a17.0275,17.0275,0,0,1,17.0078,17.0083v399.6841a17.0274,17.0274,0,0,1-17.0078,17.0078l-517.7442-.003-257.7939,64.7129a39.649,39.649,0,0,1-9.6621,1.1953Z" transform="translate(-226.8564 -650.329)"/><g id="SPLINE"><circle class="cls-3" cx="25.8651" cy="25.8651" r="3.8268"/></g><g id="SPLINE-2" data-name="SPLINE"><circle class="cls-3" cx="25.866" cy="408.5449" r="3.8268"/></g><g id="SPLINE-3" data-name="SPLINE"><circle class="cls-3" cx="343.8151" cy="445.5136" r="3.8268"/></g><g id="SPLINE-4" data-name="SPLINE"><circle class="cls-3" cx="661.7643" cy="445.434" r="3.8268"/></g><g id="SPLINE-5" data-name="SPLINE"><circle class="cls-3" cx="979.7124" cy="408.5688" r="3.8268"/></g><g id="SPLINE-6" data-name="SPLINE"><circle class="cls-3" cx="1321.2996" cy="408.5452" r="3.8268"/></g><g id="SPLINE-7" data-name="SPLINE"><circle class="cls-3" cx="1321.1634" cy="26.0045" r="3.8268"/></g><g id="SPLINE-8" data-name="SPLINE"><circle class="cls-3" cx="979.7124" cy="26.0045" r="3.8268"/></g><g id="SPLINE-9" data-name="SPLINE"><circle class="cls-3" cx="661.7643" cy="26.0045" r="3.8268"/></g><g id="SPLINE-10" data-name="SPLINE"><circle class="cls-3" cx="343.8131" cy="25.8651" r="3.8268"/></g></svg>