<svg id="Layer_1" data-name="Layer 1" xmlns="http://www.w3.org/2000/svg" width="479.2499mm" height="180.5008mm" viewBox="0 0 1358.5036 511.6559"><defs><style>.cls-1{fill:#c1c230;fill-opacity:0;stroke:#c1c230;}.cls-1,.cls-3,.cls-4{stroke-linecap:round;stroke-linejoin:round;}.cls-1,.cls-2{stroke-width:0.7087px;}.cls-2,.cls-3,.cls-4{fill:none;}.cls-2{stroke:#11aa4b;stroke-miterlimit:10;}.cls-3{stroke:#000;}.cls-3,.cls-4{stroke-width:0.7087px;}.cls-4{stroke:#118341;}</style></defs><polygon class="cls-1" points="248.858 389.9 248.858 389.9 248.855 389.899 248.858 389.9"/><polygon class="cls-1" points="437.125 388.144 437.122 388.143 437.121 388.142 437.125 388.144"/><path class="cls-2" d="M686.8546,1155.9614a45.3544,45.3544,0,0,1-11.08-1.375L419.668,1090.0532l-175.4487.003a22.7028,22.7028,0,0,1-22.6777-22.6768l.0005-399.6841a22.7027,22.7027,0,0,1,22.6772-22.6772l539.9966-.0039,772.4438.0039a22.7027,22.7027,0,0,1,22.6768,22.6772v399.6841a22.7026,22.7026,0,0,1-22.6768,22.6768l-517.0449-.003-257.1133,64.543a45.35,45.35,0,0,1-11.042,1.3652Z" transform="translate(-221.1872 -644.6598)"/><g id="SPLINE"><circle class="cls-3" cx="31.5345" cy="31.5345" r="3.8268"/></g><g id="SPLINE-2" data-name="SPLINE"><circle class="cls-3" cx="31.5354" cy="414.2143" r="3.8268"/></g><g id="SPLINE-3" data-name="SPLINE"><circle class="cls-3" cx="349.4846" cy="451.1831" r="3.8268"/></g><g id="SPLINE-4" data-name="SPLINE"><circle class="cls-3" cx="667.4338" cy="451.1034" r="3.8268"/></g><g id="SPLINE-5" data-name="SPLINE"><circle class="cls-3" cx="985.3818" cy="414.2382" r="3.8268"/></g><g id="SPLINE-6" data-name="SPLINE"><circle class="cls-3" cx="1326.9691" cy="414.2146" r="3.8268"/></g><g id="SPLINE-7" data-name="SPLINE"><circle class="cls-3" cx="1326.8329" cy="31.6739" r="3.8268"/></g><g id="SPLINE-8" data-name="SPLINE"><circle class="cls-3" cx="985.3818" cy="31.6739" r="3.8268"/></g><g id="SPLINE-9" data-name="SPLINE"><circle class="cls-3" cx="667.4338" cy="31.6739" r="3.8268"/></g><g id="SPLINE-10" data-name="SPLINE"><circle class="cls-3" cx="349.4825" cy="31.5345" r="3.8268"/></g><path class="cls-4" d="M305.5679,1030.1353a.71.71,0,0,1-.709-.71V991.4419a.71.71,0,0,1,.709-.71h37.9839a.7106.7106,0,0,1,.7095.71l0,37.9834a.7093.7093,0,0,1-.709.71Z" transform="translate(-221.1872 -644.6598)"/><path class="cls-4" d="M280.9791,986.3618a.7089.7089,0,0,1-.7085-.708V927.9956a.71.71,0,0,1,.7085-.709H299.97a.71.71,0,0,1,.7085.709V975.86a.4255.4255,0,0,0,.4253.4248h3.2275a.4255.4255,0,0,0,.4253-.4248V937.4478a.85.85,0,0,1,.85-.85h37.9834a.8515.8515,0,0,1,.8506.8505V975.86a.4255.4255,0,0,0,.4253.4248h3.2275a.4255.4255,0,0,0,.4253-.4248V927.9956a.71.71,0,0,1,.7085-.709h18.9907a.71.71,0,0,1,.7085.709v57.6582a.7089.7089,0,0,1-.7085.708Z" transform="translate(-221.1872 -644.6598)"/><path class="cls-4" d="M151.8817,346.0721h37.9819a.71.71,0,0,1,.71.71v37.9844a.709.709,0,0,1-.709.709H151.8807a.709.709,0,0,1-.709-.709V346.7821A.71.71,0,0,1,151.8817,346.0721Z"/><path class="cls-4" d="M172.1117,292.0721h37.9829a.71.71,0,0,1,.71.71v37.9844a.709.709,0,0,1-.709.709H172.1126a.71.71,0,0,1-.71-.71V292.7811A.709.709,0,0,1,172.1117,292.0721Z"/><path class="cls-4" d="M185.6117,238.0721h37.9829a.71.71,0,0,1,.71.71v37.9844a.709.709,0,0,1-.709.709H185.6126a.71.71,0,0,1-.71-.71V238.7811A.709.709,0,0,1,185.6117,238.0721Z"/><path class="cls-4" d="M352.815,868.1358a.71.71,0,0,1-.709-.71V829.4424a.71.71,0,0,1,.709-.71h37.9839a.7106.7106,0,0,1,.7095.71l0,37.9834a.7095.7095,0,0,1-.709.71Z" transform="translate(-221.1872 -644.6598)"/><path class="cls-4" d="M420.315,868.1358a.71.71,0,0,1-.709-.71V829.4424a.71.71,0,0,1,.709-.71h37.9839a.7106.7106,0,0,1,.7095.71l0,37.9834a.7095.7095,0,0,1-.709.71Z" transform="translate(-221.1872 -644.6598)"/><path class="cls-4" d="M379.815,814.1358a.71.71,0,0,1-.709-.71V775.4424a.71.71,0,0,1,.709-.71h37.9839a.7106.7106,0,0,1,.7095.71l0,37.9834a.7095.7095,0,0,1-.709.71Z" transform="translate(-221.1872 -644.6598)"/><path class="cls-4" d="M433.815,814.1358a.71.71,0,0,1-.709-.71V775.4424a.71.71,0,0,1,.709-.71h37.9839a.7106.7106,0,0,1,.7095.71l0,37.9834a.7095.7095,0,0,1-.709.71Z" transform="translate(-221.1872 -644.6598)"/><path class="cls-4" d="M312.3,746.6358a.7095.7095,0,0,1-.7085-.71V707.9424a.71.71,0,0,1,.7085-.71h37.9839a.71.71,0,0,1,.7089.71v37.9834a.71.71,0,0,1-.7089.71Z" transform="translate(-221.1872 -644.6598)"/><path class="cls-4" d="M393.315,746.6358a.71.71,0,0,1-.709-.71V707.9424a.71.71,0,0,1,.709-.71h37.9839a.7106.7106,0,0,1,.7095.71l0,37.9834a.7095.7095,0,0,1-.709.71Z" transform="translate(-221.1872 -644.6598)"/><path class="cls-4" d="M447.315,746.6358a.71.71,0,0,1-.709-.71V707.9424a.71.71,0,0,1,.709-.71h37.9839a.7106.7106,0,0,1,.7095.71l0,37.9834a.7095.7095,0,0,1-.709.71Z" transform="translate(-221.1872 -644.6598)"/><path class="cls-4" d="M752.6307,62.5809h37.9824a.71.71,0,0,1,.71.71v37.9844a.709.709,0,0,1-.709.709H752.63a.709.709,0,0,1-.709-.709V63.2909A.71.71,0,0,1,752.6307,62.5809Z"/><path class="cls-4" d="M806.63,62.5809h37.9834a.71.71,0,0,1,.71.71v37.9844a.709.709,0,0,1-.709.709H806.6307a.71.71,0,0,1-.71-.71V63.29A.709.709,0,0,1,806.63,62.5809Z"/><path class="cls-4" d="M867.3817,62.5726h37.9814a.71.71,0,0,1,.71.71v37.9844a.709.709,0,0,1-.709.709H867.3817a.71.71,0,0,1-.71-.71V63.2826A.71.71,0,0,1,867.3817,62.5726Z"/><path class="cls-4" d="M921.3817,62.5726h37.9814a.71.71,0,0,1,.71.71v37.9844a.709.709,0,0,1-.709.709H921.3817a.71.71,0,0,1-.71-.71V63.2826A.71.71,0,0,1,921.3817,62.5726Z"/><path class="cls-4" d="M982.13,62.5809h37.9834a.71.71,0,0,1,.71.71v37.9844a.709.709,0,0,1-.709.709H982.1307a.71.71,0,0,1-.71-.71V63.29A.709.709,0,0,1,982.13,62.5809Z"/><path class="cls-4" d="M1036.13,62.5828h37.9834a.71.71,0,0,1,.71.71v37.9844a.709.709,0,0,1-.709.709h-37.9834a.71.71,0,0,1-.71-.71V63.2918A.709.709,0,0,1,1036.13,62.5828Z"/><path class="cls-4" d="M1103.63,62.5828h37.9834a.71.71,0,0,1,.71.71v37.9844a.709.709,0,0,1-.709.709h-37.9834a.71.71,0,0,1-.71-.71V63.2918A.709.709,0,0,1,1103.63,62.5828Z"/><path class="cls-4" d="M1157.63,62.5809h37.9834a.71.71,0,0,1,.71.71v37.9844a.709.709,0,0,1-.709.709h-37.9834a.71.71,0,0,1-.71-.71V63.29A.709.709,0,0,1,1157.63,62.5809Z"/><path class="cls-4" d="M1211.63,62.5809h37.9834a.71.71,0,0,1,.71.71v37.9844a.709.709,0,0,1-.709.709h-37.9834a.71.71,0,0,1-.71-.71V63.29A.709.709,0,0,1,1211.63,62.5809Z"/><path class="cls-4" d="M1265.63,62.5809h37.9834a.71.71,0,0,1,.71.71v37.9844a.709.709,0,0,1-.709.709h-37.9834a.71.71,0,0,1-.71-.71V63.29A.709.709,0,0,1,1265.63,62.5809Z"/><path class="cls-4" d="M766.1307,130.0809h37.9824a.71.71,0,0,1,.71.71v37.9844a.709.709,0,0,1-.709.709H766.1307a.71.71,0,0,1-.71-.71V130.7909A.71.71,0,0,1,766.1307,130.0809Z"/><path class="cls-4" d="M820.13,130.0809h37.9834a.71.71,0,0,1,.71.71v37.9844a.709.709,0,0,1-.709.709H820.1307a.71.71,0,0,1-.71-.71V130.79A.709.709,0,0,1,820.13,130.0809Z"/><path class="cls-4" d="M874.13,130.0809h37.9834a.71.71,0,0,1,.71.71v37.9844a.709.709,0,0,1-.709.709H874.1307a.71.71,0,0,1-.71-.71V130.79A.709.709,0,0,1,874.13,130.0809Z"/><path class="cls-4" d="M779.6307,184.0809h37.9824a.71.71,0,0,1,.71.71v37.9844a.709.709,0,0,1-.709.709H779.6307a.71.71,0,0,1-.71-.71V184.7909A.71.71,0,0,1,779.6307,184.0809Z"/><path class="cls-4" d="M833.63,184.0809h37.9834a.71.71,0,0,1,.71.71v37.9844a.709.709,0,0,1-.709.709H833.6307a.71.71,0,0,1-.71-.71V184.79A.709.709,0,0,1,833.63,184.0809Z"/><path class="cls-4" d="M887.63,184.0809h37.9834a.71.71,0,0,1,.71.71v37.9844a.709.709,0,0,1-.709.709H887.6307a.71.71,0,0,1-.71-.71V184.79A.709.709,0,0,1,887.63,184.0809Z"/><path class="cls-4" d="M955.13,184.0809h37.9834a.71.71,0,0,1,.71.71v37.9844a.709.709,0,0,1-.709.709H955.1307a.71.71,0,0,1-.71-.71V184.79A.709.709,0,0,1,955.13,184.0809Z"/><path class="cls-4" d="M793.13,238.078h37.9834a.709.709,0,0,1,.709.709v37.9854a.709.709,0,0,1-.709.709H793.1307a.71.71,0,0,1-.71-.71V238.7869A.709.709,0,0,1,793.13,238.078Z"/><path class="cls-4" d="M847.13,238.078h37.9824a.71.71,0,0,1,.71.71v37.9844a.709.709,0,0,1-.709.709H847.1307a.71.71,0,0,1-.71-.71V238.7869A.709.709,0,0,1,847.13,238.078Z"/><path class="cls-4" d="M806.63,292.078h37.9824a.71.71,0,0,1,.71.71v37.9844a.709.709,0,0,1-.709.709H806.6307a.71.71,0,0,1-.71-.71V292.7869A.709.709,0,0,1,806.63,292.078Z"/><path class="cls-4" d="M982.13,292.078h37.9824a.71.71,0,0,1,.71.71v37.9844a.709.709,0,0,1-.709.709H982.1307a.71.71,0,0,1-.71-.71V292.7869A.709.709,0,0,1,982.13,292.078Z"/><path class="cls-4" d="M799.8807,346.0721h37.9834a.709.709,0,0,1,.709.709v37.9854a.709.709,0,0,1-.709.709H799.8817a.71.71,0,0,1-.71-.71V346.7811A.709.709,0,0,1,799.8807,346.0721Z"/><path class="cls-4" d="M867.3807,346.0721h37.9834a.709.709,0,0,1,.709.709v37.9854a.709.709,0,0,1-.709.709H867.3817a.71.71,0,0,1-.71-.71V346.7811A.709.709,0,0,1,867.3807,346.0721Z"/><path class="cls-4" d="M928.13,346.078h37.9824a.71.71,0,0,1,.71.71v37.9844a.709.709,0,0,1-.709.709H928.1307a.71.71,0,0,1-.71-.71V346.7869A.709.709,0,0,1,928.13,346.078Z"/><path class="cls-4" d="M982.13,346.078h37.9824a.71.71,0,0,1,.71.71v37.9844a.709.709,0,0,1-.709.709H982.1307a.71.71,0,0,1-.71-.71V346.7869A.709.709,0,0,1,982.13,346.078Z"/><path class="cls-4" d="M1036.13,346.08h37.9834a.709.709,0,0,1,.709.709v37.9844a.709.709,0,0,1-.709.709h-37.9824a.71.71,0,0,1-.71-.71V346.7889A.709.709,0,0,1,1036.13,346.08Z"/><path class="cls-4" d="M1103.63,130.0828h37.9834a.71.71,0,0,1,.71.71v37.9844a.709.709,0,0,1-.709.709h-37.9834a.71.71,0,0,1-.71-.71V130.7918A.709.709,0,0,1,1103.63,130.0828Z"/><path class="cls-4" d="M1157.63,130.0809h37.9834a.71.71,0,0,1,.71.71v37.9844a.709.709,0,0,1-.709.709h-37.9834a.71.71,0,0,1-.71-.71V130.79A.709.709,0,0,1,1157.63,130.0809Z"/><path class="cls-4" d="M1211.63,130.0809h37.9834a.71.71,0,0,1,.71.71v37.9844a.709.709,0,0,1-.709.709h-37.9834a.71.71,0,0,1-.71-.71V130.79A.709.709,0,0,1,1211.63,130.0809Z"/><path class="cls-4" d="M1265.63,130.0809h37.9834a.71.71,0,0,1,.71.71v37.9844a.709.709,0,0,1-.709.709h-37.9834a.71.71,0,0,1-.71-.71V130.79A.709.709,0,0,1,1265.63,130.0809Z"/><path class="cls-4" d="M1103.63,184.0828h37.9834a.71.71,0,0,1,.71.71v37.9844a.709.709,0,0,1-.709.709h-37.9834a.71.71,0,0,1-.71-.71V184.7918A.709.709,0,0,1,1103.63,184.0828Z"/><path class="cls-4" d="M1157.63,184.0809h37.9834a.71.71,0,0,1,.71.71v37.9844a.709.709,0,0,1-.709.709h-37.9834a.71.71,0,0,1-.71-.71V184.79A.709.709,0,0,1,1157.63,184.0809Z"/><path class="cls-4" d="M1211.63,184.0809h37.9834a.71.71,0,0,1,.71.71v37.9844a.709.709,0,0,1-.709.709h-37.9834a.71.71,0,0,1-.71-.71V184.79A.709.709,0,0,1,1211.63,184.0809Z"/><path class="cls-4" d="M1103.63,238.0794h37.9834a.709.709,0,0,1,.709.709v37.9849a.709.709,0,0,1-.709.709h-37.9824a.71.71,0,0,1-.71-.71V238.7884A.709.709,0,0,1,1103.63,238.0794Z"/><path class="cls-4" d="M1157.63,238.078h37.9824a.71.71,0,0,1,.71.71v37.9844a.709.709,0,0,1-.709.709h-37.9824a.71.71,0,0,1-.71-.71V238.7869A.709.709,0,0,1,1157.63,238.078Z"/><path class="cls-4" d="M1211.63,238.078h37.9824a.71.71,0,0,1,.71.71v37.9844a.709.709,0,0,1-.709.709h-37.9824a.71.71,0,0,1-.71-.71V238.7869A.709.709,0,0,1,1211.63,238.078Z"/><path class="cls-4" d="M1103.63,292.08h37.9824a.71.71,0,0,1,.71.71v37.9834a.709.709,0,0,1-.709.709h-37.9824a.71.71,0,0,1-.71-.71V292.7889A.709.709,0,0,1,1103.63,292.08Z"/><path class="cls-4" d="M1157.63,292.078h37.9824a.71.71,0,0,1,.71.71v37.9844a.709.709,0,0,1-.709.709h-37.9824a.71.71,0,0,1-.71-.71V292.7869A.709.709,0,0,1,1157.63,292.078Z"/><path class="cls-4" d="M1211.63,292.078h37.9824a.71.71,0,0,1,.71.71v37.9844a.709.709,0,0,1-.709.709h-37.9824a.71.71,0,0,1-.71-.71V292.7869A.709.709,0,0,1,1211.63,292.078Z"/><path class="cls-4" d="M1211.63,346.078h37.9824a.71.71,0,0,1,.71.71v37.9844a.709.709,0,0,1-.709.709h-37.9824a.71.71,0,0,1-.71-.71V346.7869A.709.709,0,0,1,1211.63,346.078Z"/><path class="cls-4" d="M97.88,238.0721h51.4844a.71.71,0,0,1,.71.71v37.9849a.7085.7085,0,0,1-.7085.7085H97.8812a.71.71,0,0,1-.71-.71V238.7811A.709.709,0,0,1,97.88,238.0721Z"/><path class="cls-4" d="M1151.69,824.3535a.71.71,0,0,1-.709-.7085V765.9868a.71.71,0,0,1,.709-.7085h18.99a.71.71,0,0,1,.709.7085v47.8648a.4256.4256,0,0,0,.4248.4253h3.2276a.4264.4264,0,0,0,.4257-.4253V775.44a.85.85,0,0,1,.85-.85H1214.3a.8516.8516,0,0,1,.8505.8506v38.4107a.4256.4256,0,0,0,.4248.4253h3.2276a.4264.4264,0,0,0,.4258-.4253V765.9868a.7089.7089,0,0,1,.708-.7085h18.9912a.709.709,0,0,1,.708.7085V823.645a.7089.7089,0,0,1-.708.7085Z" transform="translate(-221.1872 -644.6598)"/><path class="cls-4" d="M801.7759,1098.5776a.7078.7078,0,0,1-.6879-.5371l-13.9488-55.9453a.7087.7087,0,0,1,.5166-.8593l18.4263-4.5948a.7285.7285,0,0,1,.1714-.0205.7079.7079,0,0,1,.688.5371L818.5206,1083.6a.4245.4245,0,0,0,.4121.3223.4076.4076,0,0,0,.103-.0127l3.1318-.78a.4257.4257,0,0,0,.31-.5156l-9.2925-37.2705a.8514.8514,0,0,1,.6192-1.03l36.855-9.19a.8619.8619,0,0,1,.206-.0253.85.85,0,0,1,.8252.6455l9.2925,37.27a.4234.4234,0,0,0,.4116.3223.4109.4109,0,0,0,.1035-.0127l3.1319-.78a.4257.4257,0,0,0,.3095-.5156l-11.58-46.4424a.7109.7109,0,0,1,.5161-.8594l18.4268-4.5947a.7239.7239,0,0,1,.1714-.02.7078.7078,0,0,1,.688.5371l13.9487,55.9453a.7091.7091,0,0,1-.5166.8594l-84.647,21.1054A.7217.7217,0,0,1,801.7759,1098.5776Z" transform="translate(-221.1872 -644.6598)"/><path class="cls-4" d="M676.983,1103.4819a.7217.7217,0,0,1-.1709-.0205l-84.647-21.1045a.7107.7107,0,0,1-.5166-.8593l13.9487-55.9453a.7086.7086,0,0,1,.6875-.5381.736.736,0,0,1,.1724.0215l18.4258,4.5937a.71.71,0,0,1,.5166.8594L613.82,1076.9312a.4249.4249,0,0,0,.31.5156l3.1314.78a.4248.4248,0,0,0,.5151-.3086l9.2925-37.2705a.8494.8494,0,0,1,1.03-.62l36.855,9.1895a.8509.8509,0,0,1,.62,1.0312l-9.2925,37.27a.426.426,0,0,0,.31.5156l3.1313.78a.4248.4248,0,0,0,.5151-.3086l11.58-46.4424a.7071.7071,0,0,1,.6866-.5381.736.736,0,0,1,.1728.0215l18.4263,4.5937a.71.71,0,0,1,.5161.8594l-13.9487,55.9453A.7079.7079,0,0,1,676.983,1103.4819Z" transform="translate(-221.1872 -644.6598)"/><path class="cls-4" d="M542.3936,760.2529a.7235.7235,0,0,1-.1709-.021l-36.8559-9.1894a.7108.7108,0,0,1-.5166-.86l9.1894-36.8549a.7092.7092,0,0,1,.689-.5391.7235.7235,0,0,1,.1709.021l36.8554,9.1894a.7109.7109,0,0,1,.5166.86l-9.1889,36.855A.71.71,0,0,1,542.3936,760.2529Z" transform="translate(-221.1872 -644.6598)"/><path class="cls-4" d="M596.4219,766.7676a.7235.7235,0,0,1-.1709-.021l-36.8554-9.1895a.7107.7107,0,0,1-.5166-.86l9.1889-36.855a.7092.7092,0,0,1,.689-.5391.7288.7288,0,0,1,.1709.021l36.8555,9.1895a.71.71,0,0,1,.5166.8608l-9.189,36.8545A.7092.7092,0,0,1,596.4219,766.7676Z" transform="translate(-221.1872 -644.6598)"/><path class="cls-4" d="M647.1856,786.38a.7245.7245,0,0,1-.1714-.021l-36.8554-9.189a.711.711,0,0,1-.5167-.8613l9.189-36.8545a.7092.7092,0,0,1,.6885-.5386.73.73,0,0,1,.1714.021l36.8554,9.189a.7113.7113,0,0,1,.5166.8608l-9.1889,36.855a.7092.7092,0,0,1-.6885.5386Z" transform="translate(-221.1872 -644.6598)"/><path class="cls-4" d="M697.9483,805.9937a.7288.7288,0,0,1-.1709-.021l-36.8555-9.19a.71.71,0,0,1-.5166-.8608l9.189-36.8545a.7092.7092,0,0,1,.689-.5391.7235.7235,0,0,1,.1709.021l36.8554,9.1895a.7107.7107,0,0,1,.5166.86l-9.1889,36.855A.7092.7092,0,0,1,697.9483,805.9937Z" transform="translate(-221.1872 -644.6598)"/><path class="cls-4" d="M526.064,825.7481a.73.73,0,0,1-.1714-.021l-36.8554-9.189a.7108.7108,0,0,1-.5166-.8613l9.1889-36.8545a.7092.7092,0,0,1,.6885-.5386.7245.7245,0,0,1,.1714.021l36.8555,9.189a.7113.7113,0,0,1,.5166.8608l-9.189,36.855a.7092.7092,0,0,1-.6885.5386Z" transform="translate(-221.1872 -644.6598)"/><path class="cls-4" d="M580.0928,832.2622a.7235.7235,0,0,1-.1709-.021l-36.8559-9.1894a.71.71,0,0,1-.5161-.8609l9.1889-36.8545a.7092.7092,0,0,1,.689-.539.7235.7235,0,0,1,.1709.021l36.8555,9.1894a.711.711,0,0,1,.5166.86l-9.189,36.855A.71.71,0,0,1,580.0928,832.2622Z" transform="translate(-221.1872 -644.6598)"/><path class="cls-4" d="M630.855,851.876a.7235.7235,0,0,1-.1709-.021l-36.8554-9.19a.7107.7107,0,0,1-.5166-.86l9.1889-36.855a.71.71,0,0,1,.689-.5391.7288.7288,0,0,1,.1709.021l36.856,9.1895a.7109.7109,0,0,1,.5166.86l-9.19,36.855A.7092.7092,0,0,1,630.855,851.876Z" transform="translate(-221.1872 -644.6598)"/><path class="cls-4" d="M681.6182,871.4888a.7235.7235,0,0,1-.1709-.021l-36.8554-9.19a.7107.7107,0,0,1-.5166-.86l9.1889-36.855a.71.71,0,0,1,.689-.5391.7288.7288,0,0,1,.1709.021l36.8559,9.19a.7108.7108,0,0,1,.5166.86l-9.1894,36.855A.7092.7092,0,0,1,681.6182,871.4888Z" transform="translate(-221.1872 -644.6598)"/><path class="cls-4" d="M513,878.1436a.7284.7284,0,0,1-.1714-.021l-36.8555-9.189a.7114.7114,0,0,1-.5166-.8608l9.189-36.855a.71.71,0,0,1,.6884-.5386.7232.7232,0,0,1,.1714.021l36.856,9.189a.7113.7113,0,0,1,.5166.8608l-9.189,36.855a.71.71,0,0,1-.6889.5386Z" transform="translate(-221.1872 -644.6598)"/><path class="cls-4" d="M567.0289,884.6582a.7223.7223,0,0,1-.1709-.021l-36.8555-9.1894a.711.711,0,0,1-.5166-.86l9.189-36.855a.7092.7092,0,0,1,.6889-.539.7223.7223,0,0,1,.1709.021l36.8555,9.1894a.71.71,0,0,1,.5166.8609l-9.189,36.8545A.7092.7092,0,0,1,567.0289,884.6582Z" transform="translate(-221.1872 -644.6598)"/><path class="cls-4" d="M617.7916,904.2715a.7223.7223,0,0,1-.1709-.021l-36.8555-9.1895a.7108.7108,0,0,1-.5166-.86l9.189-36.855a.71.71,0,0,1,.6889-.539.7274.7274,0,0,1,.1709.0209l36.856,9.19a.7109.7109,0,0,1,.5166.86l-9.1895,36.8549A.7092.7092,0,0,1,617.7916,904.2715Z" transform="translate(-221.1872 -644.6598)"/><path class="cls-4" d="M668.5547,923.8843a.72.72,0,0,1-.1709-.0205l-36.8559-9.1895a.71.71,0,0,1-.5166-.86l9.1894-36.855a.7092.7092,0,0,1,.689-.5391.7281.7281,0,0,1,.1709.021l36.8555,9.1895a.7109.7109,0,0,1,.5166.86l-9.189,36.8555a.7092.7092,0,0,1-.689.5381Z" transform="translate(-221.1872 -644.6598)"/><path class="cls-4" d="M499.9361,930.54a.7244.7244,0,0,1-.1709-.02L462.91,921.33a.7118.7118,0,0,1-.5166-.86l9.189-36.8555a.71.71,0,0,1,.6885-.5386.7245.7245,0,0,1,.1714.021l36.8559,9.189a.7113.7113,0,0,1,.5166.8608l-9.1894,36.8545a.7092.7092,0,0,1-.689.5391Z" transform="translate(-221.1872 -644.6598)"/><path class="cls-4" d="M553.9644,937.0542a.7188.7188,0,0,1-.17-.0205l-36.856-9.1894a.712.712,0,0,1-.5166-.86l9.19-36.8555a.7091.7091,0,0,1,.6885-.5385.7245.7245,0,0,1,.1714.021L563.3262,898.8a.7114.7114,0,0,1,.5166.8609l-9.1889,36.8544a.71.71,0,0,1-.689.5391Z" transform="translate(-221.1872 -644.6598)"/><path class="cls-4" d="M604.7291,956.6675a.7353.7353,0,0,1-.1724-.0215l-36.855-9.1885a.7123.7123,0,0,1-.5166-.8613l9.189-36.8545a.71.71,0,0,1,.6889-.5391.7275.7275,0,0,1,.1709.021l36.856,9.189a.7117.7117,0,0,1,.5161.8613l-9.1889,36.8545A.7086.7086,0,0,1,604.7291,956.6675Z" transform="translate(-221.1872 -644.6598)"/><path class="cls-4" d="M655.4918,976.2808a.7353.7353,0,0,1-.1724-.0215l-36.855-9.1885a.7123.7123,0,0,1-.5166-.8613l9.189-36.8545a.7085.7085,0,0,1,.688-.5391.7351.7351,0,0,1,.1723.0215l36.855,9.1885a.7115.7115,0,0,1,.5166.8613l-9.189,36.8545A.7085.7085,0,0,1,655.4918,976.2808Z" transform="translate(-221.1872 -644.6598)"/><path class="cls-4" d="M486.8731,982.936a.7418.7418,0,0,1-.1724-.0214l-36.8549-9.1885a.7123.7123,0,0,1-.5166-.8613l9.1889-36.8545a.7085.7085,0,0,1,.688-.5391.7366.7366,0,0,1,.1724.0215l36.855,9.1885a.7116.7116,0,0,1,.5166.8613l-9.189,36.8545A.7084.7084,0,0,1,486.8731,982.936Z" transform="translate(-221.1872 -644.6598)"/><path class="cls-4" d="M540.9009,989.45a.72.72,0,0,1-.1709-.02L503.8746,980.24a.7106.7106,0,0,1-.5166-.86l9.1889-36.8555a.7084.7084,0,0,1,.689-.538.72.72,0,0,1,.1709.02l36.8555,9.1894a.7106.7106,0,0,1,.5166.86l-9.189,36.8554a.7083.7083,0,0,1-.689.5381Z" transform="translate(-221.1872 -644.6598)"/><path class="cls-4" d="M591.6641,1009.063a.72.72,0,0,1-.1709-.02l-36.8554-9.19a.71.71,0,0,1-.5166-.86l9.1889-36.8555a.7083.7083,0,0,1,.689-.5381.725.725,0,0,1,.1709.02l36.8555,9.1895a.7105.7105,0,0,1,.5166.86l-9.189,36.8555a.7083.7083,0,0,1-.689.5381Z" transform="translate(-221.1872 -644.6598)"/><path class="cls-4" d="M642.4273,1028.6763a.725.725,0,0,1-.1709-.0205l-36.8555-9.1895a.71.71,0,0,1-.5166-.86l9.189-36.8555a.7083.7083,0,0,1,.689-.5381.725.725,0,0,1,.1709.02l36.8554,9.19a.71.71,0,0,1,.5166.86l-9.1889,36.8555a.7083.7083,0,0,1-.689.5381Z" transform="translate(-221.1872 -644.6598)"/><path class="cls-4" d="M694.8243,1041.74a.742.742,0,0,1-.1724-.0215l-36.8555-9.1885a.7117.7117,0,0,1-.5161-.8613l9.189-36.8545a.7085.7085,0,0,1,.688-.5391.7351.7351,0,0,1,.1723.0215l36.855,9.1885a.7122.7122,0,0,1,.5166.8613l-9.1889,36.8545A.7094.7094,0,0,1,694.8243,1041.74Z" transform="translate(-221.1872 -644.6598)"/><path class="cls-4" d="M506.5572,1043.4966a.7366.7366,0,0,1-.1724-.0215l-36.855-9.1885a.7124.7124,0,0,1-.5166-.8613l9.189-36.8545a.7084.7084,0,0,1,.688-.539.7418.7418,0,0,1,.1724.0214l36.8549,9.1885a.7115.7115,0,0,1,.5166.8613l-9.1889,36.8545A.7085.7085,0,0,1,506.5572,1043.4966Z" transform="translate(-221.1872 -644.6598)"/><path class="cls-4" d="M572.0513,1059.8257a.72.72,0,0,1-.1709-.0205l-36.8554-9.1895a.71.71,0,0,1-.5166-.86l9.1889-36.8555a.7083.7083,0,0,1,.689-.5381.725.725,0,0,1,.1709.02l36.8555,9.19a.7105.7105,0,0,1,.5166.86l-9.189,36.8555a.7083.7083,0,0,1-.689.5381Z" transform="translate(-221.1872 -644.6598)"/><path class="cls-4" d="M761.1719,805.9937a.7092.7092,0,0,1-.6889-.5391L751.294,768.6a.71.71,0,0,1,.5166-.86l36.8555-9.1895a.7223.7223,0,0,1,.1709-.021.7092.7092,0,0,1,.6889.5391l9.189,36.855a.7109.7109,0,0,1-.5166.86l-36.8555,9.19A.7275.7275,0,0,1,761.1719,805.9937Z" transform="translate(-221.1872 -644.6598)"/><path class="cls-4" d="M811.9337,786.38a.7092.7092,0,0,1-.6885-.5386l-9.189-36.855a.7108.7108,0,0,1,.5166-.8608l36.8555-9.189a.7291.7291,0,0,1,.1714-.021.7092.7092,0,0,1,.6884.5386l9.189,36.855a.7113.7113,0,0,1-.5166.8608l-36.8555,9.189A.723.723,0,0,1,811.9337,786.38Z" transform="translate(-221.1872 -644.6598)"/><path class="cls-4" d="M862.6959,766.7671a.7092.7092,0,0,1-.6885-.5386l-9.189-36.855a.7108.7108,0,0,1,.5166-.8608l36.8555-9.189a.7291.7291,0,0,1,.1714-.021.7093.7093,0,0,1,.6885.5386l9.1889,36.855a.7113.7113,0,0,1-.5166.8608l-36.8555,9.189A.723.723,0,0,1,862.6959,766.7671Z" transform="translate(-221.1872 -644.6598)"/><path class="cls-4" d="M916.7271,760.2529a.7075.7075,0,0,1-.6885-.539l-9.1894-36.855a.7109.7109,0,0,1,.5166-.86l36.8555-9.1894a.71.71,0,0,1,.86.5176l9.1885,36.8554a.71.71,0,0,1-.5166.86l-36.8555,9.1894A.7172.7172,0,0,1,916.7271,760.2529Z" transform="translate(-221.1872 -644.6598)"/><path class="cls-4" d="M777.5015,871.4888a.7093.7093,0,0,1-.6885-.5386l-9.1889-36.855a.7106.7106,0,0,1,.5161-.8608l36.856-9.189a.7282.7282,0,0,1,.1713-.021.7092.7092,0,0,1,.6885.5386l9.189,36.855a.7113.7113,0,0,1-.5166.8608l-36.8555,9.189A.7239.7239,0,0,1,777.5015,871.4888Z" transform="translate(-221.1872 -644.6598)"/><path class="cls-4" d="M828.2642,851.8755a.7092.7092,0,0,1-.6885-.5386l-9.1889-36.855a.7106.7106,0,0,1,.5166-.8608l36.8554-9.189a.73.73,0,0,1,.1714-.021.7092.7092,0,0,1,.6885.5386l9.189,36.855a.7113.7113,0,0,1-.5166.8608l-36.8555,9.189A.7239.7239,0,0,1,828.2642,851.8755Z" transform="translate(-221.1872 -644.6598)"/><path class="cls-4" d="M879.0279,832.2622a.71.71,0,0,1-.689-.5386L869.15,794.8682a.7109.7109,0,0,1,.5166-.86l36.8554-9.1894a.7235.7235,0,0,1,.1709-.021.7092.7092,0,0,1,.689.539l9.189,36.855a.71.71,0,0,1-.5166.86l-36.8555,9.1894A.7235.7235,0,0,1,879.0279,832.2622Z" transform="translate(-221.1872 -644.6598)"/><path class="cls-4" d="M933.0572,825.7476a.71.71,0,0,1-.6895-.5381l-9.1884-36.8555a.71.71,0,0,1,.5166-.8608l36.8554-9.189a.7235.7235,0,0,1,.1709-.021.71.71,0,0,1,.6895.5381L970.6,815.6768a.71.71,0,0,1-.5166.8608l-36.8555,9.189A.7288.7288,0,0,1,933.0572,825.7476Z" transform="translate(-221.1872 -644.6598)"/><path class="cls-4" d="M790.5645,923.8843a.7093.7093,0,0,1-.689-.5391l-9.1889-36.8545a.7106.7106,0,0,1,.5166-.8608l36.8555-9.189a.7282.7282,0,0,1,.1713-.021.7092.7092,0,0,1,.6885.5386l9.189,36.8555a.7118.7118,0,0,1-.5161.86l-36.856,9.1895A.7192.7192,0,0,1,790.5645,923.8843Z" transform="translate(-221.1872 -644.6598)"/><path class="cls-4" d="M841.34,904.2715a.7092.7092,0,0,1-.689-.5391l-9.1889-36.8549a.71.71,0,0,1,.5166-.86l36.8554-9.19a.7286.7286,0,0,1,.1709-.0209.7091.7091,0,0,1,.689.539l9.189,36.855a.7108.7108,0,0,1-.5166.86l-36.8555,9.1895A.7235.7235,0,0,1,841.34,904.2715Z" transform="translate(-221.1872 -644.6598)"/><path class="cls-4" d="M892.0914,884.6582a.7092.7092,0,0,1-.689-.539l-9.1894-36.855a.7108.7108,0,0,1,.5166-.86l36.8559-9.1894a.7172.7172,0,0,1,.1709-.021.7074.7074,0,0,1,.6885.539l9.1894,36.855a.71.71,0,0,1-.5166.86l-36.8554,9.1894A.7235.7235,0,0,1,892.0914,884.6582Z" transform="translate(-221.1872 -644.6598)"/><path class="cls-4" d="M946.12,878.1436a.7112.7112,0,0,1-.6895-.5386L936.2418,840.75a.7094.7094,0,0,1,.5166-.86L973.6138,830.7a.7172.7172,0,0,1,.1709-.021.7074.7074,0,0,1,.6885.5391l9.1895,36.855a.71.71,0,0,1-.5166.86l-36.8555,9.19A.7223.7223,0,0,1,946.12,878.1436Z" transform="translate(-221.1872 -644.6598)"/><path class="cls-4" d="M803.627,976.2808a.7085.7085,0,0,1-.688-.5391L793.75,938.8872a.7123.7123,0,0,1,.5161-.8613l36.8564-9.1885a.7292.7292,0,0,1,.1719-.0215.7094.7094,0,0,1,.688.5391l9.189,36.8545a.7124.7124,0,0,1-.5162.8613l-36.8559,9.1885A.7292.7292,0,0,1,803.627,976.2808Z" transform="translate(-221.1872 -644.6598)"/><path class="cls-4" d="M854.3907,956.6675a.7094.7094,0,0,1-.688-.5391l-9.189-36.8545a.7125.7125,0,0,1,.5161-.8613l36.856-9.189a.7288.7288,0,0,1,.1709-.021.71.71,0,0,1,.69.5386l9.1889,36.855a.7123.7123,0,0,1-.5161.8613l-36.8564,9.1885A.7292.7292,0,0,1,854.3907,956.6675Z" transform="translate(-221.1872 -644.6598)"/><path class="cls-4" d="M905.1544,937.0542a.71.71,0,0,1-.6885-.5391l-9.189-36.8549a.7115.7115,0,0,1,.5166-.8609L932.649,889.61a.7223.7223,0,0,1,.1709-.021.71.71,0,0,1,.6894.5381l9.1885,36.8554a.71.71,0,0,1-.5166.86l-36.8555,9.1894A.7236.7236,0,0,1,905.1544,937.0542Z" transform="translate(-221.1872 -644.6598)"/><path class="cls-4" d="M959.1832,930.54a.7071.7071,0,0,1-.6875-.5391l-9.19-36.855a.71.71,0,0,1,.5166-.86l36.8555-9.19a.71.71,0,0,1,.86.5176l9.1885,36.855a.7115.7115,0,0,1-.5166.8613l-36.8555,9.1885A.731.731,0,0,1,959.1832,930.54Z" transform="translate(-221.1872 -644.6598)"/><path class="cls-4" d="M764.2979,1041.74a.71.71,0,0,1-.6894-.5381l-9.189-36.8555a.71.71,0,0,1,.5166-.86l36.8555-9.19a.7186.7186,0,0,1,.1709-.02.71.71,0,0,1,.6894.5381l9.189,36.8554a.7106.7106,0,0,1-.5166.86l-36.8555,9.1895A.7244.7244,0,0,1,764.2979,1041.74Z" transform="translate(-221.1872 -644.6598)"/><path class="cls-4" d="M816.6939,1028.6763a.7083.7083,0,0,1-.689-.5381l-9.1894-36.8555a.71.71,0,0,1,.5166-.86l36.8559-9.19a.725.725,0,0,1,.1709-.02.7092.7092,0,0,1,.689.5381l9.189,36.8555a.71.71,0,0,1-.5166.86l-36.8555,9.1895A.7244.7244,0,0,1,816.6939,1028.6763Z" transform="translate(-221.1872 -644.6598)"/><path class="cls-4" d="M867.4566,1009.063a.71.71,0,0,1-.6895-.5381l-9.1889-36.8555a.71.71,0,0,1,.5166-.86L894.95,961.62a.7237.7237,0,0,1,.1709-.02.71.71,0,0,1,.6894.5381L905,998.9927a.71.71,0,0,1-.5166.86l-36.856,9.19A.7182.7182,0,0,1,867.4566,1009.063Z" transform="translate(-221.1872 -644.6598)"/><path class="cls-4" d="M918.2193,989.45a.71.71,0,0,1-.6895-.5381l-9.1889-36.8554a.71.71,0,0,1,.5166-.86l36.8559-9.1894a.7167.7167,0,0,1,.1709-.02.7074.7074,0,0,1,.6885.538l9.1895,36.8555a.7139.7139,0,0,1-.08.5371.7041.7041,0,0,1-.4365.3233L918.39,989.4292A.7167.7167,0,0,1,918.2193,989.45Z" transform="translate(-221.1872 -644.6598)"/><path class="cls-4" d="M972.2476,982.9351a.7074.7074,0,0,1-.6885-.5381L962.37,945.5415a.7139.7139,0,0,1,.08-.5371.7037.7037,0,0,1,.4365-.3232l36.8555-9.1895a.7123.7123,0,0,1,.86.5176l9.1885,36.8555a.71.71,0,0,1-.5166.86l-36.8555,9.1895A.7213.7213,0,0,1,972.2476,982.9351Z" transform="translate(-221.1872 -644.6598)"/><path class="cls-4" d="M926.3668,1050.0278a.71.71,0,0,1-.69-.538l-9.1894-36.8555a.7138.7138,0,0,1,.08-.5371.7043.7043,0,0,1,.4366-.3233l36.8564-9.1894a.7167.7167,0,0,1,.1709-.0205.709.709,0,0,1,.6885.5381l9.1894,36.8554a.7138.7138,0,0,1-.08.5371.7038.7038,0,0,1-.4365.3233l-36.8554,9.1894A.7167.7167,0,0,1,926.3668,1050.0278Z" transform="translate(-221.1872 -644.6598)"/><path class="cls-4" d="M1090.94,986.3667a.7094.7094,0,0,1-.709-.708V928.0005a.71.71,0,0,1,.709-.709h18.99a.71.71,0,0,1,.709.709v47.8643a.4259.4259,0,0,0,.4248.4257h3.2276a.4267.4267,0,0,0,.4257-.4257V937.4536a.8511.8511,0,0,1,.85-.8506H1153.55a.8519.8519,0,0,1,.8505.8506v38.4112a.426.426,0,0,0,.4248.4257h3.2276a.4268.4268,0,0,0,.4258-.4257V932.37h-27.045a.7085.7085,0,0,1-.708-.708V874.0034a.709.709,0,0,1,.708-.7085h18.9913a.709.709,0,0,1,.708.7085v47.8643a.4259.4259,0,0,0,.4257.4248h3.2276a.4251.4251,0,0,0,.4248-.4248V883.4561a.85.85,0,0,1,.85-.85h37.9834a.8516.8516,0,0,1,.8506.8505v38.4107a.4259.4259,0,0,0,.4258.4248h3.2275a.4251.4251,0,0,0,.4248-.4248V874.0034a.71.71,0,0,1,.709-.7085h18.99a.71.71,0,0,1,.709.7085v57.6582a.7093.7093,0,0,1-.709.708h-39.7861v53.2891a.7094.7094,0,0,1-.709.708Z" transform="translate(-221.1872 -644.6598)"/><path class="cls-4" d="M1327.189,1040.37a.7085.7085,0,0,1-.708-.708V982.0034a.7094.7094,0,0,1,.708-.709H1346.18a.7093.7093,0,0,1,.708.709v47.8643a.4259.4259,0,0,0,.4258.4248h3.2276a.4251.4251,0,0,0,.4248-.4248V991.4556a.85.85,0,0,1,.85-.85h37.9834a.8519.8519,0,0,1,.8506.8506v38.4111a.4259.4259,0,0,0,.4257.4248h3.2276a.4251.4251,0,0,0,.4248-.4248V982.0034a.71.71,0,0,1,.709-.709h18.99a.71.71,0,0,1,.709.709v57.6582a.7093.7093,0,0,1-.709.708Z" transform="translate(-221.1872 -644.6598)"/><path class="cls-4" d="M1476.5992,1027.7671a.7085.7085,0,0,1-.708-.708V939.8208a.7094.7094,0,0,1,.708-.709h57.6582a.71.71,0,0,1,.709.709v18.99a.71.71,0,0,1-.709.709h-47.8643a.426.426,0,0,0-.4248.4258v3.2266a.426.426,0,0,0,.4248.4258h38.4121a.85.85,0,0,1,.85.85v37.9834a.8519.8519,0,0,1-.8505.8506h-38.4112a.426.426,0,0,0-.4248.4257v3.2266a.426.426,0,0,0,.4248.4258h47.8643a.71.71,0,0,1,.709.709v18.99a.7094.7094,0,0,1-.709.708Z" transform="translate(-221.1872 -644.6598)"/><path class="cls-4" d="M1476.5963,919.7671a.7086.7086,0,0,1-.7081-.708V831.8208a.709.709,0,0,1,.7081-.7085h57.6582a.71.71,0,0,1,.7089.7085v18.9907a.71.71,0,0,1-.7089.7085H1486.39a.4255.4255,0,0,0-.4248.4253v3.2276a.4256.4256,0,0,0,.4248.4253h38.4121a.85.85,0,0,1,.85.85v37.9834a.8516.8516,0,0,1-.8506.8506H1486.39a.4255.4255,0,0,0-.4248.4252v3.2276a.4255.4255,0,0,0,.4248.4253h47.8643a.71.71,0,0,1,.7089.7085v18.9907a.7093.7093,0,0,1-.7089.708Z" transform="translate(-221.1872 -644.6598)"/></svg>