<svg id="Layer_1" data-name="Layer 1" xmlns="http://www.w3.org/2000/svg" width="475.2499mm" height="176.5009mm" viewBox="0 0 1347.1652 500.3176"><defs><style>.cls-1,.cls-2{fill:none;}.cls-1{stroke:#c1c230;stroke-miterlimit:10;stroke-width:0.7087px;}.cls-2{stroke:#000;stroke-linecap:round;stroke-linejoin:round;stroke-width:0.7087px;}</style></defs><path class="cls-1" d="M1516.9739,1044.7014l-482.9638-.0029-262.5508,65.9082H687.8007l-.0079-.001-262.5112-65.9072-141.3809.0029a17.0277,17.0277,0,0,1-17.0068-16.8125V707.1643a17.0073,17.0073,0,0,1,16.8769-16.7929l344.5391-.003v-39.685l-384.0908.0034a17.0275,17.0275,0,0,0-17.0079,17.0083l0,399.6841a17.0273,17.0273,0,0,0,17.0078,17.0078l176.1528-.003,256.7866,64.7051a39.7468,39.7468,0,0,0,9.6963,1.2031h84.605a39.649,39.649,0,0,0,9.6621-1.1953l257.7939-64.7129,517.7442.003a17.0274,17.0274,0,0,0,17.0078-17.0078V667.6951a17.0275,17.0275,0,0,0-17.0078-17.0083l-772.4439-.0034v39.685l732.8814.003a17.0281,17.0281,0,0,1,16.8847,17.0068v320.3154a17.0285,17.0285,0,0,1-17.0078,17.0078" transform="translate(-226.8564 -650.329)"/><g id="LINE"><path class="cls-2" d="M257.1616,682.6768a.6991.6991,0,0,1,.36.6039.7087.7087,0,1,1-1.4173,0h-6.7656a.7087.7087,0,1,1-1.4173,0,.6991.6991,0,0,1,.36-.6039l-3.3942-5.8788a.69.69,0,0,1-.3487.1047.7087.7087,0,0,1,0-1.4173.69.69,0,0,1,.3487.1048l3.3942-5.8789a.699.699,0,0,1-.36-.6038.7087.7087,0,1,1,1.4173,0h6.7656a.7087.7087,0,1,1,1.4173,0,.6991.6991,0,0,1-.36.6039l3.3942,5.8788a.6889.6889,0,0,1,.3486-.1048.7087.7087,0,1,1,0,1.4173.6888.6888,0,0,1-.3486-.1047Z" transform="translate(-226.8564 -650.329)"/></g><g id="LINE-2" data-name="LINE"><path class="cls-2" d="M257.1625,1065.3566a.6991.6991,0,0,1,.36.6039.7087.7087,0,1,1-1.4173,0H249.34a.7087.7087,0,1,1-1.4173,0,.6991.6991,0,0,1,.36-.6039l-3.3942-5.8788a.6891.6891,0,0,1-.3486.1047.7087.7087,0,1,1,0-1.4173.6891.6891,0,0,1,.3486.1047l3.3942-5.8788a.699.699,0,0,1-.36-.6038.7087.7087,0,1,1,1.4173,0h6.7656a.7087.7087,0,1,1,1.4173,0,.6991.6991,0,0,1-.36.6039l3.3942,5.8788a.6879.6879,0,0,1,.3486-.1048.7087.7087,0,1,1,0,1.4173.6891.6891,0,0,1-.3486-.1047Z" transform="translate(-226.8564 -650.329)"/></g><g id="LINE-3" data-name="LINE"><path class="cls-2" d="M1552.5962,1065.357a.6989.6989,0,0,1,.36.6038.7087.7087,0,1,1-1.4173,0h-6.7656a.7087.7087,0,1,1-1.4174,0,.6989.6989,0,0,1,.36-.6038l-3.3943-5.8789a.6888.6888,0,0,1-.3486.1047.7087.7087,0,0,1,0-1.4173.69.69,0,0,1,.3487.1048l3.3942-5.8789a.6989.6989,0,0,1-.36-.6038.7087.7087,0,1,1,1.4174,0h6.7656a.7087.7087,0,1,1,1.4173,0,.6991.6991,0,0,1-.36.6039l3.3941,5.8788a.69.69,0,0,1,.3487-.1048.7087.7087,0,0,1,0,1.4173.69.69,0,0,1-.3487-.1047Z" transform="translate(-226.8564 -650.329)"/></g><g id="LINE-4" data-name="LINE"><path class="cls-2" d="M1552.46,682.8162a.6991.6991,0,0,1,.36.6039.7087.7087,0,0,1-1.4174,0h-6.7655a.7087.7087,0,0,1-1.4174,0,.6992.6992,0,0,1,.36-.6039l-3.3943-5.8788a.6888.6888,0,0,1-.3486.1047.7087.7087,0,0,1,0-1.4173.69.69,0,0,1,.3487.1047l3.3942-5.8788a.6991.6991,0,0,1-.36-.6038.7087.7087,0,1,1,1.4174,0h6.7655a.7087.7087,0,1,1,1.4174,0,.6991.6991,0,0,1-.36.6039l3.3941,5.8788a.6886.6886,0,0,1,.3487-.1048.7087.7087,0,0,1,0,1.4173.69.69,0,0,1-.3487-.1047Z" transform="translate(-226.8564 -650.329)"/></g><g id="LINE-5" data-name="LINE"><path class="cls-2" d="M1211.0089,1065.3806a.6989.6989,0,0,1,.36.6038.7087.7087,0,1,1-1.4173,0h-6.7656a.7087.7087,0,0,1-1.4174,0,.6989.6989,0,0,1,.36-.6038l-3.3942-5.8789a.69.69,0,0,1-.3487.1048.7087.7087,0,0,1,0-1.4173.69.69,0,0,1,.3487.1047l3.3942-5.8789a.6989.6989,0,0,1-.36-.6038.7087.7087,0,0,1,1.4174,0h6.7656a.7087.7087,0,1,1,1.4173,0,.6991.6991,0,0,1-.36.6039l3.3941,5.8789a.6886.6886,0,0,1,.3487-.1048.7087.7087,0,0,1,0,1.4173.69.69,0,0,1-.3487-.1048Z" transform="translate(-226.8564 -650.329)"/></g><g id="LINE-6" data-name="LINE"><path class="cls-2" d="M1211.0089,682.8162a.6991.6991,0,0,1,.36.6039.7087.7087,0,1,1-1.4173,0h-6.7656a.7087.7087,0,0,1-1.4174,0,.6992.6992,0,0,1,.36-.6039l-3.3942-5.8788a.69.69,0,0,1-.3487.1047.7087.7087,0,0,1,0-1.4173.69.69,0,0,1,.3487.1047l3.3942-5.8788a.6991.6991,0,0,1-.36-.6038.7087.7087,0,0,1,1.4174,0h6.7656a.7087.7087,0,1,1,1.4173,0,.6991.6991,0,0,1-.36.6039l3.3941,5.8788a.6886.6886,0,0,1,.3487-.1048.7087.7087,0,0,1,0,1.4173.69.69,0,0,1-.3487-.1047Z" transform="translate(-226.8564 -650.329)"/></g><g id="LINE-7" data-name="LINE"><path class="cls-2" d="M575.11,682.6768a.6992.6992,0,0,1,.36.6039.7087.7087,0,0,1-1.4174,0h-6.7656a.7087.7087,0,1,1-1.4173,0,.6991.6991,0,0,1,.36-.6039l-3.3942-5.8788a.6891.6891,0,0,1-.3486.1047.7087.7087,0,0,1,0-1.4173.69.69,0,0,1,.3487.1048l3.3941-5.8789a.699.699,0,0,1-.36-.6038.7087.7087,0,1,1,1.4173,0h6.7656a.7087.7087,0,1,1,1.4174,0,.6992.6992,0,0,1-.36.6039l3.3942,5.8788a.6892.6892,0,0,1,.3486-.1048.7087.7087,0,1,1,0,1.4173.6894.6894,0,0,1-.3486-.1047Z" transform="translate(-226.8564 -650.329)"/></g><g id="LINE-8" data-name="LINE"><path class="cls-2" d="M893.0608,682.8162a.6992.6992,0,0,1,.36.6039.7087.7087,0,0,1-1.4174,0H885.238a.7087.7087,0,0,1-1.4174,0,.699.699,0,0,1,.36-.6039l-3.3943-5.8788a.6891.6891,0,0,1-.3486.1047.7087.7087,0,0,1,0-1.4173.69.69,0,0,1,.3487.1047l3.3942-5.8788a.6989.6989,0,0,1-.36-.6038.7087.7087,0,0,1,1.4174,0h6.7655a.7087.7087,0,0,1,1.4174,0,.6992.6992,0,0,1-.36.6039l3.3942,5.8788a.6882.6882,0,0,1,.3486-.1048.7087.7087,0,1,1,0,1.4173.6894.6894,0,0,1-.3486-.1047Z" transform="translate(-226.8564 -650.329)"/></g><g id="LINE-9" data-name="LINE"><path class="cls-2" d="M573.4115,1103.207a.699.699,0,0,1,.2032.673.7087.7087,0,1,1-1.3752-.3429l-6.5646-1.6367a.7087.7087,0,0,1-1.3753-.3429.6991.6991,0,0,1,.4955-.4988l-1.8712-6.5254a.69.69,0,0,1-.3636.0173.7086.7086,0,0,1,.3428-1.3752.6892.6892,0,0,1,.313.186l4.7156-4.8831a.6991.6991,0,0,1-.2033-.673.7087.7087,0,0,1,1.3753.3429l6.5646,1.6367a.7087.7087,0,1,1,1.3752.3429.6989.6989,0,0,1-.4954.4988l1.8711,6.5254a.6887.6887,0,0,1,.3636-.0174.7086.7086,0,1,1-.3428,1.3752.69.69,0,0,1-.313-.1859Z" transform="translate(-226.8564 -650.329)"/></g><g id="LINE-10" data-name="LINE"><path class="cls-2" d="M894.4973,1100.979a.6994.6994,0,0,1,.4954.4989.7087.7087,0,1,1-1.3752.3429l-6.5646,1.6367a.7087.7087,0,1,1-1.3753.3429.6988.6988,0,0,1,.2033-.673l-4.7157-4.8831a.6891.6891,0,0,1-.3129.1859.7087.7087,0,0,1-.3429-1.3752.69.69,0,0,1,.3637.0173l1.8711-6.5253a.6991.6991,0,0,1-.4954-.4988.7087.7087,0,1,1,1.3752-.3429l6.5646-1.6367a.7087.7087,0,0,1,1.3753-.3429.6988.6988,0,0,1-.2033.673l4.7156,4.8831a.6889.6889,0,0,1,.3129-.186.7087.7087,0,1,1,.3429,1.3752.69.69,0,0,1-.3636-.0173Z" transform="translate(-226.8564 -650.329)"/></g></svg>