<svg id="Layer_1" data-name="Layer 1" xmlns="http://www.w3.org/2000/svg" width="471.2498mm" height="172.5008mm" viewBox="0 0 1335.8263 488.9787"><defs><style>.cls-1,.cls-2{fill:none;}.cls-1{stroke:#c1c230;stroke-miterlimit:10;stroke-width:0.7087px;}.cls-2{stroke:#000;stroke-linecap:round;stroke-linejoin:round;stroke-width:0.7087px;}</style></defs><path class="cls-1" d="M628.31,696.0383" transform="translate(-232.5259 -655.9985)"/><path class="cls-1" d="M1516.9744,1044.7019l-482.9638-.0029L771.46,1110.6072H687.8012l-.0079-.001L425.282,1044.699l-141.3808.0029a17.0279,17.0279,0,0,1-17.0069-16.8125V707.1648a17.0076,17.0076,0,0,1,16.877-16.793l344.5391-.0029V656.3528l-384.0909.0039a11.3521,11.3521,0,0,0-11.3388,11.3389l0,399.6841a11.3512,11.3512,0,0,0,11.3389,11.3378l176.8559-.0029,257.4688,64.877a34.0385,34.0385,0,0,0,8.311,1.0312H771.46a34.0362,34.0362,0,0,0,8.2817-1.0234l258.4722-64.8848,518.4463.0029a11.35,11.35,0,0,0,11.3379-11.3378V667.6956a11.3513,11.3513,0,0,0-11.3379-11.3389l-772.4439-.0039v34.0161l732.8814.0029a17.0282,17.0282,0,0,1,16.8847,17.0069v320.3154a17.0285,17.0285,0,0,1-17.0078,17.0078" transform="translate(-232.5259 -655.9985)"/><g id="LINE"><path class="cls-2" d="M257.1621,682.6773a.6991.6991,0,0,1,.36.6039.7087.7087,0,1,1-1.4173,0h-6.7656a.7087.7087,0,0,1-1.4174,0,.6992.6992,0,0,1,.36-.6039l-3.3942-5.8788a.69.69,0,0,1-.3487.1047.7087.7087,0,0,1,0-1.4173.69.69,0,0,1,.3487.1047l3.3942-5.8788a.6991.6991,0,0,1-.36-.6038.7087.7087,0,0,1,1.4174,0h6.7656a.7087.7087,0,1,1,1.4173,0,.6991.6991,0,0,1-.36.6039l3.3941,5.8788a.6886.6886,0,0,1,.3487-.1048.7087.7087,0,1,1,0,1.4173.69.69,0,0,1-.3487-.1047Z" transform="translate(-232.5259 -655.9985)"/></g><g id="LINE-2" data-name="LINE"><path class="cls-2" d="M257.163,1065.3571a.6991.6991,0,0,1,.36.6039.7087.7087,0,1,1-1.4173,0H249.34a.7087.7087,0,1,1-1.4173,0,.6991.6991,0,0,1,.36-.6039l-3.3942-5.8788a.69.69,0,0,1-.3487.1047.7087.7087,0,0,1,0-1.4173.69.69,0,0,1,.3487.1047l3.3942-5.8788a.699.699,0,0,1-.36-.6038.7087.7087,0,1,1,1.4173,0h6.7656a.7087.7087,0,1,1,1.4173,0,.6991.6991,0,0,1-.36.6039l3.3942,5.8788a.6879.6879,0,0,1,.3486-.1048.7087.7087,0,1,1,0,1.4173.6888.6888,0,0,1-.3486-.1047Z" transform="translate(-232.5259 -655.9985)"/></g><g id="LINE-3" data-name="LINE"><path class="cls-2" d="M1552.5967,1065.3574a.6991.6991,0,0,1,.36.6039.7087.7087,0,0,1-1.4174,0h-6.7655a.7087.7087,0,0,1-1.4174,0,.6992.6992,0,0,1,.36-.6039l-3.3943-5.8788a.6888.6888,0,0,1-.3486.1047.7087.7087,0,0,1,0-1.4173.69.69,0,0,1,.3487.1048l3.3942-5.8789a.6991.6991,0,0,1-.36-.6038.7087.7087,0,0,1,1.4174,0h6.7655a.7087.7087,0,0,1,1.4174,0,.6991.6991,0,0,1-.36.6039l3.3941,5.8788a.6892.6892,0,0,1,.3486-.1048.7087.7087,0,1,1,0,1.4173.6894.6894,0,0,1-.3486-.1047Z" transform="translate(-232.5259 -655.9985)"/></g><g id="LINE-4" data-name="LINE"><path class="cls-2" d="M1552.46,682.8167a.6992.6992,0,0,1,.36.6039.7087.7087,0,1,1-1.4174,0h-6.7655a.7087.7087,0,0,1-1.4174,0,.6992.6992,0,0,1,.36-.6039l-3.3943-5.8788a.6888.6888,0,0,1-.3486.1047.7087.7087,0,0,1,0-1.4173.69.69,0,0,1,.3487.1047l3.3942-5.8788a.6991.6991,0,0,1-.36-.6038.7087.7087,0,1,1,1.4174,0h6.7655a.7087.7087,0,0,1,1.4174,0,.6989.6989,0,0,1-.36.6038l3.3942,5.8789a.6882.6882,0,0,1,.3486-.1048.7087.7087,0,1,1,0,1.4173.6894.6894,0,0,1-.3486-.1047Z" transform="translate(-232.5259 -655.9985)"/></g><g id="LINE-5" data-name="LINE"><path class="cls-2" d="M1211.0094,1065.3811a.6989.6989,0,0,1,.36.6038.7087.7087,0,1,1-1.4174,0h-6.7655a.7087.7087,0,1,1-1.4174,0,.6989.6989,0,0,1,.36-.6038l-3.3943-5.8789a.6888.6888,0,0,1-.3486.1047.7087.7087,0,0,1,0-1.4173.69.69,0,0,1,.3487.1048l3.3942-5.8789a.6989.6989,0,0,1-.36-.6038.7087.7087,0,1,1,1.4174,0h6.7655a.7087.7087,0,1,1,1.4174,0,.6991.6991,0,0,1-.36.6039l3.3941,5.8788a.69.69,0,0,1,.3487-.1048.7087.7087,0,0,1,0,1.4173.69.69,0,0,1-.3487-.1047Z" transform="translate(-232.5259 -655.9985)"/></g><g id="LINE-6" data-name="LINE"><path class="cls-2" d="M1211.0094,682.8167a.6991.6991,0,0,1,.36.6039.7087.7087,0,1,1-1.4174,0h-6.7655a.7087.7087,0,1,1-1.4174,0,.6992.6992,0,0,1,.36-.6039l-3.3943-5.8788a.6888.6888,0,0,1-.3486.1047.7087.7087,0,0,1,0-1.4173.69.69,0,0,1,.3487.1047l3.3942-5.8788a.6991.6991,0,0,1-.36-.6038.7087.7087,0,1,1,1.4174,0h6.7655a.7087.7087,0,1,1,1.4174,0,.6989.6989,0,0,1-.36.6038l3.3941,5.8789a.6886.6886,0,0,1,.3487-.1048.7087.7087,0,0,1,0,1.4173.69.69,0,0,1-.3487-.1047Z" transform="translate(-232.5259 -655.9985)"/></g><g id="LINE-7" data-name="LINE"><path class="cls-2" d="M575.11,682.6773a.6992.6992,0,0,1,.36.6039.7087.7087,0,1,1-1.4174,0h-6.7656a.7087.7087,0,1,1-1.4173,0,.6991.6991,0,0,1,.36-.6039l-3.3942-5.8788a.6891.6891,0,0,1-.3486.1047.7087.7087,0,1,1,0-1.4173.69.69,0,0,1,.3487.1047l3.3941-5.8788a.699.699,0,0,1-.36-.6038.7087.7087,0,1,1,1.4173,0h6.7656a.7087.7087,0,1,1,1.4174,0,.6992.6992,0,0,1-.36.6039l3.3942,5.8788a.6882.6882,0,0,1,.3486-.1048.7087.7087,0,1,1,0,1.4173.6894.6894,0,0,1-.3486-.1047Z" transform="translate(-232.5259 -655.9985)"/></g><g id="LINE-8" data-name="LINE"><path class="cls-2" d="M893.0613,682.8167a.6992.6992,0,0,1,.36.6039.7087.7087,0,0,1-1.4174,0h-6.7655a.7087.7087,0,0,1-1.4174,0,.6991.6991,0,0,1,.36-.6039l-3.3942-5.8788a.6891.6891,0,0,1-.3486.1047.7087.7087,0,0,1,0-1.4173.69.69,0,0,1,.3487.1047l3.3941-5.8788a.699.699,0,0,1-.36-.6038.7087.7087,0,0,1,1.4174,0h6.7655a.7087.7087,0,0,1,1.4174,0,.6989.6989,0,0,1-.36.6038l3.3942,5.8789a.6882.6882,0,0,1,.3486-.1048.7087.7087,0,1,1,0,1.4173.6894.6894,0,0,1-.3486-.1047Z" transform="translate(-232.5259 -655.9985)"/></g><g id="LINE-9" data-name="LINE"><path class="cls-2" d="M573.4119,1103.2075a.6988.6988,0,0,1,.2033.673.7087.7087,0,1,1-1.3752-.3429l-6.5646-1.6367a.7087.7087,0,1,1-1.3753-.3429.6991.6991,0,0,1,.4954-.4988l-1.8711-6.5254a.69.69,0,0,1-.3637.0173.7087.7087,0,0,1,.3429-1.3752.6892.6892,0,0,1,.313.186l4.7156-4.8831a.6989.6989,0,0,1-.2033-.673.7087.7087,0,1,1,1.3753.3429l6.5646,1.6367a.7087.7087,0,1,1,1.3752.3429.6989.6989,0,0,1-.4954.4988l1.8711,6.5254a.6887.6887,0,0,1,.3636-.0174.7086.7086,0,1,1-.3428,1.3752.6885.6885,0,0,1-.313-.1859Z" transform="translate(-232.5259 -655.9985)"/></g><g id="LINE-10" data-name="LINE"><path class="cls-2" d="M894.4978,1100.98a.6991.6991,0,0,1,.4954.4989.7087.7087,0,0,1-1.3753.3429l-6.5646,1.6367a.7087.7087,0,1,1-1.3752.3429.6992.6992,0,0,1,.2032-.6731l-4.7156-4.883a.6891.6891,0,0,1-.3129.1859.7087.7087,0,0,1-.3429-1.3752.69.69,0,0,1,.3637.0173l1.8711-6.5253a.6991.6991,0,0,1-.4954-.4988.7087.7087,0,1,1,1.3752-.3429l6.5646-1.6368a.7087.7087,0,0,1,1.3753-.3428.6991.6991,0,0,1-.2033.673l4.7156,4.8831a.6884.6884,0,0,1,.3129-.186.7087.7087,0,1,1,.3429,1.3752.69.69,0,0,1-.3636-.0173Z" transform="translate(-232.5259 -655.9985)"/></g></svg>