<svg id="Layer_1" data-name="Layer 1" xmlns="http://www.w3.org/2000/svg" width="467.2499mm" height="168.5009mm" viewBox="0 0 1324.488 477.6403"><defs><style>.cls-1,.cls-2{fill:none;}.cls-1{stroke:#000;stroke-linecap:round;stroke-linejoin:round;stroke-width:0.7087px;}.cls-2{stroke:#c1c230;stroke-miterlimit:10;stroke-width:0.7087px;}</style></defs><g id="SPLINE"><circle class="cls-1" cx="14.5267" cy="14.5267" r="3.8268"/></g><g id="SPLINE-2" data-name="SPLINE"><circle class="cls-1" cx="14.5276" cy="397.2065" r="3.8268"/></g><g id="SPLINE-3" data-name="SPLINE"><circle class="cls-1" cx="332.4768" cy="434.1752" r="3.8268"/></g><g id="SPLINE-4" data-name="SPLINE"><circle class="cls-1" cx="650.4259" cy="434.0956" r="3.8268"/></g><g id="SPLINE-5" data-name="SPLINE"><circle class="cls-1" cx="968.374" cy="397.2304" r="3.8268"/></g><g id="SPLINE-6" data-name="SPLINE"><circle class="cls-1" cx="1309.9613" cy="397.2068" r="3.8268"/></g><g id="SPLINE-7" data-name="SPLINE"><circle class="cls-1" cx="1309.8251" cy="14.6661" r="3.8268"/></g><g id="SPLINE-8" data-name="SPLINE"><circle class="cls-1" cx="968.374" cy="14.6661" r="3.8268"/></g><g id="SPLINE-9" data-name="SPLINE"><circle class="cls-1" cx="650.4259" cy="14.6661" r="3.8268"/></g><g id="SPLINE-10" data-name="SPLINE"><circle class="cls-1" cx="332.4747" cy="14.5267" r="3.8268"/></g><path class="cls-2" d="M1556.66,662.0259l-772.4436-.0039-28.037,0V782.6871H702.944V662.0225l-31.1133,0v43.7723H647.1149V662.023l-402.8958.0028a5.6694,5.6694,0,0,0-5.6692,5.6693l-.0005,399.6839a5.6693,5.6693,0,0,0,5.6694,5.6693l177.56-.0029,258.15,65.049a28.3429,28.3429,0,0,0,6.9263.8592h84.605a28.3483,28.3483,0,0,0,6.9017-.853l259.1521-65.0552,519.1462.0029a5.6693,5.6693,0,0,0,5.6693-5.6693V667.6951A5.6692,5.6692,0,0,0,1556.66,662.0259Z" transform="translate(-238.195 -661.6677)"/></svg>