<svg id="Layer_1" data-name="Layer 1" xmlns="http://www.w3.org/2000/svg" width="467.2mm" height="45.4804mm" viewBox="0 0 1324.3465 128.9208"><defs><style>.cls-1,.cls-2{fill:none;stroke-linecap:round;stroke-linejoin:round;}.cls-1{stroke:#000;stroke-width:0.7087px;}.cls-2{stroke:#c1c231;stroke-width:0.5669px;}</style></defs><g id="SPLINE"><circle class="cls-1" cx="14.4559" cy="14.452" r="3.8268"/></g><g id="SPLINE-2" data-name="SPLINE"><circle class="cls-1" cx="1309.7543" cy="14.5914" r="3.8268"/></g><g id="SPLINE-3" data-name="SPLINE"><circle class="cls-1" cx="968.3032" cy="14.5914" r="3.8268"/></g><g id="SPLINE-4" data-name="SPLINE"><circle class="cls-1" cx="650.3552" cy="14.5914" r="3.8268"/></g><g id="SPLINE-5" data-name="SPLINE"><circle class="cls-1" cx="332.404" cy="14.452" r="3.8268"/></g><path class="cls-2" d="M1556.66,836.3109H244.2189A5.6692,5.6692,0,0,0,238.55,841.98l0,56.6929a5.6694,5.6694,0,0,0,5.6694,5.6694H630.3853l68.1375,58.944a5.6558,5.6558,0,0,0,3.7,1.3784H756.9a5.6559,5.6559,0,0,0,3.7-1.3784l68.1375-58.944H1556.66a5.6693,5.6693,0,0,0,5.6692-5.6694V841.98A5.6692,5.6692,0,0,0,1556.66,836.3109Z" transform="translate(-238.2658 -836.0274)"/></svg>