<svg id="Layer_1" data-name="Layer 1" xmlns="http://www.w3.org/2000/svg" width="445.2529mm" height="148.5022mm" viewBox="0 0 1262.1343 420.951"><defs><style>.cls-1{fill:none;stroke:#c1c230;stroke-linecap:round;stroke-linejoin:round;stroke-width:0.7087px;}</style></defs><path class="cls-1" d="M1524.8061,897.977h-37.9844a.9943.9943,0,0,0-.9931.9931v2.375a.9943.9943,0,0,0,.9931.9932h44.3228v-48.123h-44.3228a.9943.9943,0,0,0-.9931.9931v2.376a.9941.9941,0,0,0,.9931.9922h37.9844a.7091.7091,0,0,1,.709.708V897.269A.7091.7091,0,0,1,1524.8061,897.977Z" transform="translate(-269.3719 -690.0123)"/><path class="cls-1" d="M1531.1445,1029.8959h-51.8462a2.696,2.696,0,0,1-2.6934-2.6924V945.35a2.696,2.696,0,0,1,2.6934-2.6924h51.8462V921.8959h-51.8491a2.6959,2.6959,0,0,1-2.6934-2.6924V837.35a2.6959,2.6959,0,0,1,2.6934-2.6924h51.8491V710.21l.0073.0057a14.1733,14.1733,0,0,0-14.1731-14.1733h-.0036v-.002H784.2166l.0043.002a2.8346,2.8346,0,0,1-2.8346-2.8346,2.8346,2.8346,0,0,0-2.8346-2.8346l-.0015-.0064H633.9814l.0029.0064a2.8346,2.8346,0,0,0-2.8347,2.8346,2.8346,2.8346,0,0,1-2.8346,2.8346v-.002H283.903l.0028.002a14.1732,14.1732,0,0,0-14.1732,14.1732v0l-.0064-.0057v320.3136l.0064.0072a14.1731,14.1731,0,0,0,14.1731,14.1732h0l-.0028-.0036H425.635l261.4968,65.196.0021.0044a.7088.7088,0,0,0,.7085.7084h83.6223a.7086.7086,0,0,0,.7084-.7084l-.0021-.0044,261.4968-65.196h483.3073v.0036a14.1732,14.1732,0,0,0,14.1767-14.17v-.0036l-.0073-.0072Z" transform="translate(-269.3719 -690.0123)"/><path class="cls-1" d="M1486.1091,711.3906a.117.117,0,0,0,.0068-.0415,1.2783,1.2783,0,0,1,1.2754-1.2754.1428.1428,0,0,0,.044-.0068h36.8a1.29,1.29,0,0,1,1.2832,1.2383.13.13,0,0,0-.0059.039v36.8491a.1416.1416,0,0,0,.041.1,1.3192,1.3192,0,0,1-1.31,1.1822l.0556.0156-36.9131-.021a.1475.1475,0,0,0-.0361.0044,1.2774,1.2774,0,0,1-1.2344-1.2744.1412.1412,0,0,0-.041-.1Z" transform="translate(-269.3719 -690.0123)"/><path class="cls-1" d="M1486.1091,778.8906a.117.117,0,0,0,.0068-.0415,1.2785,1.2785,0,0,1,1.2764-1.2754.1516.1516,0,0,0,.0439-.0068h36.7989a1.3071,1.3071,0,0,1,.91.38,1.2661,1.2661,0,0,1,.3731.8575.1307.1307,0,0,0-.0059.039v36.85a.1416.1416,0,0,0,.041.1,1.3192,1.3192,0,0,1-1.31,1.1822l.0556.0156-36.9131-.021a.1475.1475,0,0,0-.0361.0044,1.2774,1.2774,0,0,1-1.2344-1.2744.1412.1412,0,0,0-.041-.1Z" transform="translate(-269.3719 -690.0123)"/><path class="cls-1" d="M1324.1091,711.3906a.117.117,0,0,0,.0068-.0415,1.2783,1.2783,0,0,1,1.2754-1.2754.1428.1428,0,0,0,.044-.0068h36.7685a.1219.1219,0,0,0,.0391.0068,1.2775,1.2775,0,0,1,1.2754,1.2315.13.13,0,0,0-.0059.039v36.8491a.1416.1416,0,0,0,.041.1,1.3192,1.3192,0,0,1-1.31,1.1822l.0634.02-36.9209-.0254a.1475.1475,0,0,0-.0361.0044,1.2774,1.2774,0,0,1-1.2344-1.2744.1412.1412,0,0,0-.041-.1Z" transform="translate(-269.3719 -690.0123)"/><path class="cls-1" d="M1324.1091,778.8906a.117.117,0,0,0,.0068-.0415,1.2785,1.2785,0,0,1,1.2764-1.2754.1516.1516,0,0,0,.0439-.0068h36.7676a.1219.1219,0,0,0,.0391.0068,1.2759,1.2759,0,0,1,1.2754,1.231.1307.1307,0,0,0-.0059.039v36.85a.1416.1416,0,0,0,.041.1,1.3192,1.3192,0,0,1-1.31,1.1822l.0634.02-36.9209-.0254a.1475.1475,0,0,0-.0361.0044,1.2774,1.2774,0,0,1-1.2344-1.2744.1412.1412,0,0,0-.041-.1Z" transform="translate(-269.3719 -690.0123)"/><path class="cls-1" d="M1141.863,711.3491a1.2768,1.2768,0,0,1,1.2744-1.2754.1433.1433,0,0,0,.044-.0068h36.7656a.1348.1348,0,0,0,.042.0068,1.278,1.278,0,0,1,1.2773,1.2754v36.8442a1.28,1.28,0,0,1-1.24,1.2818.134.134,0,0,0-.0371-.0049h-36.85a.134.134,0,0,0-.0371.0049,1.2774,1.2774,0,0,1-1.2393-1.2749Z" transform="translate(-269.3719 -690.0123)"/><path class="cls-1" d="M1216.0061,817.255h2.376a.9943.9943,0,0,0,.9932-.9931V771.529a2.6938,2.6938,0,0,1,2.68-2.7046h14.1855a2.6993,2.6993,0,0,1,2.6924,2.6826v52.2813a2.6959,2.6959,0,0,1-2.6924,2.6933H1154.387a2.6959,2.6959,0,0,1-2.6924-2.6933V771.53a2.694,2.694,0,0,1,2.6807-2.7051h14.1836a2.6976,2.6976,0,0,1,2.6933,2.6816v44.7559a.9943.9943,0,0,0,.9932.9931h2.375a.9944.9944,0,0,0,.9932-.9931V778.2775a.709.709,0,0,1,.708-.709h37.9843a.709.709,0,0,1,.708.709v37.9844A.9942.9942,0,0,0,1216.0061,817.255Z" transform="translate(-269.3719 -690.0123)"/><path class="cls-1" d="M1213.8,870.9912l-36.914-.021a.1489.1489,0,0,0-.0362.0044,1.2792,1.2792,0,0,1-1.2334-1.2744.1412.1412,0,0,0-.041-.1l.0342-36.71a.117.117,0,0,0,.0068-.0415,1.2785,1.2785,0,0,1,1.2764-1.2754.1516.1516,0,0,0,.0439-.0068h36.7989a1.3071,1.3071,0,0,1,.91.38,1.2661,1.2661,0,0,1,.3731.8575.1307.1307,0,0,0-.0059.039v36.85a.1416.1416,0,0,0,.041.1,1.3192,1.3192,0,0,1-1.31,1.1822Z" transform="translate(-269.3719 -690.0123)"/><path class="cls-1" d="M1146.3,870.9912l-36.914-.021a.1489.1489,0,0,0-.0362.0044,1.2792,1.2792,0,0,1-1.2334-1.2744.1412.1412,0,0,0-.041-.1l.0342-36.71a.117.117,0,0,0,.0068-.0415,1.2785,1.2785,0,0,1,1.2764-1.2754.1516.1516,0,0,0,.0439-.0068h36.7989a1.3071,1.3071,0,0,1,.91.38,1.2661,1.2661,0,0,1,.3731.8575.1307.1307,0,0,0-.0059.039v36.85a.1416.1416,0,0,0,.041.1,1.3192,1.3192,0,0,1-1.31,1.1822Z" transform="translate(-269.3719 -690.0123)"/><path class="cls-1" d="M1133.6452,777.9472a1.2661,1.2661,0,0,1,.3731.8575.1307.1307,0,0,0-.0059.039v36.85a.1416.1416,0,0,0,.041.1,1.3192,1.3192,0,0,1-1.31,1.1822l.0556.0156-36.914-.021a.1489.1489,0,0,0-.0362.0044,1.2792,1.2792,0,0,1-1.2334-1.2744.1412.1412,0,0,0-.041-.1l.0342-36.71a.117.117,0,0,0,.0068-.0415,1.2785,1.2785,0,0,1,1.2764-1.2754.1516.1516,0,0,0,.0439-.0068h36.7989A1.3071,1.3071,0,0,1,1133.6452,777.9472Z" transform="translate(-269.3719 -690.0123)"/><path class="cls-1" d="M1087.863,711.3491a1.2768,1.2768,0,0,1,1.2744-1.2754.1433.1433,0,0,0,.044-.0068h36.7656a.1348.1348,0,0,0,.042.0068,1.278,1.278,0,0,1,1.2773,1.2754v36.8442a1.28,1.28,0,0,1-1.24,1.2818.134.134,0,0,0-.0371-.0049h-36.85a.134.134,0,0,0-.0371.0049,1.2774,1.2774,0,0,1-1.2393-1.2749Z" transform="translate(-269.3719 -690.0123)"/><path class="cls-1" d="M1092.3,870.9912l-36.914-.021a.1489.1489,0,0,0-.0362.0044,1.2792,1.2792,0,0,1-1.2334-1.2744.1412.1412,0,0,0-.041-.1l.0342-36.71a.117.117,0,0,0,.0068-.0415,1.2785,1.2785,0,0,1,1.2764-1.2754.1516.1516,0,0,0,.0439-.0068h36.7989a1.3071,1.3071,0,0,1,.91.38,1.2661,1.2661,0,0,1,.3731.8575.1307.1307,0,0,0-.0059.039v36.85a.1416.1416,0,0,0,.041.1,1.3192,1.3192,0,0,1-1.31,1.1822Z" transform="translate(-269.3719 -690.0123)"/><path class="cls-1" d="M1079.6452,777.9472a1.2661,1.2661,0,0,1,.3731.8575.1307.1307,0,0,0-.0059.039v36.85a.1416.1416,0,0,0,.041.1,1.3192,1.3192,0,0,1-1.31,1.1822l.0556.0156-36.914-.021a.1489.1489,0,0,0-.0362.0044,1.2792,1.2792,0,0,1-1.2334-1.2744.1412.1412,0,0,0-.041-.1l.0342-36.71a.117.117,0,0,0,.0068-.0415,1.2785,1.2785,0,0,1,1.2764-1.2754.1516.1516,0,0,0,.0439-.0068h36.7989A1.3071,1.3071,0,0,1,1079.6452,777.9472Z" transform="translate(-269.3719 -690.0123)"/><path class="cls-1" d="M1027.1091,711.3906a.117.117,0,0,0,.0068-.0415,1.2783,1.2783,0,0,1,1.2754-1.2754.1428.1428,0,0,0,.044-.0068h36.8a1.29,1.29,0,0,1,1.2832,1.2383.13.13,0,0,0-.0059.039v36.8491a.1416.1416,0,0,0,.041.1,1.3192,1.3192,0,0,1-1.31,1.1822l.0556.0156-36.914-.021a.1489.1489,0,0,0-.0362.0044,1.2792,1.2792,0,0,1-1.2334-1.2744.1412.1412,0,0,0-.041-.1Z" transform="translate(-269.3719 -690.0123)"/><path class="cls-1" d="M1038.3,870.9912l-36.914-.021a.1489.1489,0,0,0-.0362.0044,1.2792,1.2792,0,0,1-1.2334-1.2744.1412.1412,0,0,0-.041-.1l.0342-36.71a.117.117,0,0,0,.0068-.0415,1.2785,1.2785,0,0,1,1.2764-1.2754.1516.1516,0,0,0,.0439-.0068h36.7989a1.3071,1.3071,0,0,1,.91.38,1.2661,1.2661,0,0,1,.3731.8575.1307.1307,0,0,0-.0059.039v36.85a.1416.1416,0,0,0,.041.1,1.3192,1.3192,0,0,1-1.31,1.1822Z" transform="translate(-269.3719 -690.0123)"/><path class="cls-1" d="M1025.6452,777.9472a1.2661,1.2661,0,0,1,.3731.8575.1307.1307,0,0,0-.0059.039v36.85a.1416.1416,0,0,0,.041.1,1.3192,1.3192,0,0,1-1.31,1.1822l.0556.0156-36.914-.021a.1489.1489,0,0,0-.0362.0044,1.2792,1.2792,0,0,1-1.2334-1.2744.1412.1412,0,0,0-.041-.1l.0342-36.71a.117.117,0,0,0,.0068-.0415,1.2785,1.2785,0,0,1,1.2764-1.2754.1516.1516,0,0,0,.0439-.0068h36.7989A1.3071,1.3071,0,0,1,1025.6452,777.9472Z" transform="translate(-269.3719 -690.0123)"/><path class="cls-1" d="M996.45,923.7241a1.2584,1.2584,0,0,1-.7529.5693c-.001,0-.0234.002-.0332.0039l-35.7549,8.9141a.144.144,0,0,0-.0361.0147,1.291,1.291,0,0,1-.2735.0293,1.2721,1.2721,0,0,1-1.2353-.9668s-8.9131-35.7481-8.9151-35.7559a1.2733,1.2733,0,0,1,.9288-1.5459.1412.1412,0,0,0,.041-.0176l35.6855-8.895a.13.13,0,0,0,.06-.0137,1.5129,1.5129,0,0,1,.2832-.0278,1.272,1.272,0,0,1,1.2256.9272.132.132,0,0,0,.0039.0332l8.9131,35.7623a.1424.1424,0,0,0,.0195.0449A1.2963,1.2963,0,0,1,996.45,923.7241Z" transform="translate(-269.3719 -690.0123)"/><path class="cls-1" d="M973.1091,711.3906a.117.117,0,0,0,.0068-.0415,1.2783,1.2783,0,0,1,1.2754-1.2754.1428.1428,0,0,0,.044-.0068h36.8a1.29,1.29,0,0,1,1.2832,1.2383.13.13,0,0,0-.0059.039v36.8491a.1416.1416,0,0,0,.041.1,1.3192,1.3192,0,0,1-1.3095,1.1822l.0556.0156-36.914-.021a.1489.1489,0,0,0-.0362.0044,1.2792,1.2792,0,0,1-1.2334-1.2744.1412.1412,0,0,0-.041-.1Z" transform="translate(-269.3719 -690.0123)"/><path class="cls-1" d="M973.3786,833.6367a1.2718,1.2718,0,0,1,1.2364.9678c.0019.0063,8.914,35.75,8.914,35.75a1.28,1.28,0,0,1-.9258,1.5527l-35.7627,8.91a.166.166,0,0,0-.0341.0132,1.2716,1.2716,0,0,1-1.5059-.9375l-8.915-35.7574a1.2732,1.2732,0,0,1,.9287-1.5444.136.136,0,0,0,.0351-.0142s35.7022-8.8984,35.708-8.8994A1.3362,1.3362,0,0,1,973.3786,833.6367Z" transform="translate(-269.3719 -690.0123)"/><path class="cls-1" d="M960.3161,781.2412a1.2733,1.2733,0,0,1,1.2276.9336.1522.1522,0,0,0,.0039.03l8.9131,35.7549a.1658.1658,0,0,0,.0156.038,1.2777,1.2777,0,0,1-.9375,1.5127s-35.7783,8.918-35.7871,8.9224a1.2737,1.2737,0,0,1-1.5147-.9365.1572.1572,0,0,0-.0156-.0371s-8.8984-35.7119-8.9-35.72a1.2773,1.2773,0,0,1,.93-1.5449.1311.1311,0,0,0,.0322-.0127l35.7227-8.9033A1.363,1.363,0,0,1,960.3161,781.2412Z" transform="translate(-269.3719 -690.0123)"/><path class="cls-1" d="M781.76,888.3315a.1491.1491,0,0,0,.0332-.0127l35.7178-8.9043a1.4628,1.4628,0,0,1,.3149-.0366,1.273,1.273,0,0,1,1.231.9468c.0009.0054,8.9165,35.7715,8.9165,35.7715a1.2756,1.2756,0,0,1-.9,1.5449c-.0088.001-35.7886,8.917-35.7886,8.917a.141.141,0,0,0-.0347.0137,1.2426,1.2426,0,0,1-.268.0283,1.2722,1.2722,0,0,1-1.2359-.9668c-.0024-.0088-8.9165-35.7564-8.9165-35.7564A1.2781,1.2781,0,0,1,781.76,888.3315Z" transform="translate(-269.3719 -690.0123)"/><path class="cls-1" d="M778.1985,874.1733a1.3109,1.3109,0,0,1-.2813.0313,1.2721,1.2721,0,0,1-1.2358-.9678l-8.9107-35.7236a.1341.1341,0,0,0-.0039-.0313,1.2768,1.2768,0,0,1,.9282-1.5469L804.45,827.02a1.3344,1.3344,0,0,1,.3111-.0376,1.2734,1.2734,0,0,1,1.2265.93.1621.1621,0,0,0,.0039.0337l8.9209,35.7549a1.2792,1.2792,0,0,1-.9292,1.55S778.2063,874.1694,778.1985,874.1733Z" transform="translate(-269.3719 -690.0123)"/><path class="cls-1" d="M865.531,845.0576a1.2635,1.2635,0,0,1-.7847.58s-35.7822,8.92-35.791,8.9243a1.2713,1.2713,0,0,1-1.51-.937l-8.915-35.7564a1.2748,1.2748,0,0,1,.9287-1.5459c.0088-.0024,35.7105-8.9126,35.7105-8.9126a.255.255,0,0,0,.0449-.0024,1.2869,1.2869,0,0,1,.31-.0386,1.2729,1.2729,0,0,1,1.2305.9453c.001.0064,8.917,35.7745,8.917,35.7745A1.2563,1.2563,0,0,1,865.531,845.0576Z" transform="translate(-269.3719 -690.0123)"/><path class="cls-1" d="M868.2776,859.8017a1.36,1.36,0,0,1,.3105-.0371,1.2723,1.2723,0,0,1,1.2275.9336.1539.1539,0,0,0,.0039.0293l8.9136,35.7554a.165.165,0,0,0,.0576.083,1.4548,1.4548,0,0,1-.1953.8877,1.2685,1.2685,0,0,1-.7617.5747.1244.1244,0,0,0-.0268.0034l-35.7554,8.9136a.1461.1461,0,0,0-.0318.0122,1.2748,1.2748,0,0,1-1.5112-.9375.1377.1377,0,0,0-.0151-.0371l-8.896-35.686a.153.153,0,0,0-.0039-.0328,1.277,1.277,0,0,1,.9292-1.5459.15.15,0,0,0,.0337-.0131Z" transform="translate(-269.3719 -690.0123)"/><path class="cls-1" d="M794.8235,940.727a.1662.1662,0,0,0,.04-.0166s35.7061-8.8965,35.7148-8.8984a1.2928,1.2928,0,0,1,.31-.0381,1.2732,1.2732,0,0,1,1.2285.9346c0,.0088,8.9175,35.7812,8.9175,35.7812a1.2723,1.2723,0,0,1-.8936,1.5459s-.0224.002-.0327.0039l-35.7548,8.9131a.16.16,0,0,0-.0372.0156,1.32,1.32,0,0,1-.27.0284,1.2728,1.2728,0,0,1-1.2363-.9668.1381.1381,0,0,0-.0142-.0352l-8.8969-35.69a.1311.1311,0,0,0-.0039-.03A1.2779,1.2779,0,0,1,794.8235,940.727Z" transform="translate(-269.3719 -690.0123)"/><path class="cls-1" d="M807.8869,993.1235a.1289.1289,0,0,0,.042-.0185l35.6831-8.8926a.1708.1708,0,0,0,.0308-.0039,1.274,1.274,0,0,1,1.5454.9277s8.918,35.7715,8.9214,35.7783a1.2777,1.2777,0,0,1-.9009,1.5157.33.33,0,0,0-.04.0029l-35.7554,8.914a.1535.1535,0,0,0-.0415.0176,1.2535,1.2535,0,0,1-.2627.0274,1.2718,1.2718,0,0,1-1.2358-.9668s-8.918-35.77-8.9195-35.7744A1.2769,1.2769,0,0,1,807.8869,993.1235Z" transform="translate(-269.3719 -690.0123)"/><path class="cls-1" d="M853.5725,958.4155l-8.9155-35.7568a1.2762,1.2762,0,0,1,.9291-1.5449.1914.1914,0,0,0,.0333-.0127l35.6923-8.899a.1225.1225,0,0,0,.03-.0034,1.2747,1.2747,0,0,1,1.5464.9292l8.9126,35.75a1.2784,1.2784,0,0,1-.8989,1.5459.291.291,0,0,0-.0342.003l-35.7554,8.914a.1476.1476,0,0,0-.0366.0147,1.2943,1.2943,0,0,1-.2661.0283A1.2735,1.2735,0,0,1,853.5725,958.4155Z" transform="translate(-269.3719 -690.0123)"/><path class="cls-1" d="M891.2712,886.4067s-8.9189-35.7754-8.9214-35.7817a1.2783,1.2783,0,0,1,.9356-1.52c.0092-.0025,35.7524-8.9156,35.7524-8.9156a1.3552,1.3552,0,0,1,.3135-.0376,1.2725,1.2725,0,0,1,1.2353.9639l8.9141,35.7549a1.2774,1.2774,0,0,1-.9277,1.55l-35.7613,8.9121a.1621.1621,0,0,0-.0307.0117,1.2732,1.2732,0,0,1-1.51-.9375Z" transform="translate(-269.3719 -690.0123)"/><path class="cls-1" d="M907.136,725.28a1.2644,1.2644,0,0,1,.7846-.5806.1534.1534,0,0,0,.042-.0181l35.6826-8.893a.1343.1343,0,0,0,.0313-.004,1.273,1.273,0,0,1,1.5371.8931.15.15,0,0,0,.0039.0357l8.9141,35.7553a.1206.1206,0,0,0,.0146.0357,1.2743,1.2743,0,0,1-.9053,1.5024.26.26,0,0,0-.0351.0034L917.45,762.9238a.1367.1367,0,0,0-.039.0161,1.2718,1.2718,0,0,1-1.5039-.9385.1407.1407,0,0,0-.06-.0839l-8.8516-35.6412a.1292.1292,0,0,0-.0039-.0307A1.2669,1.2669,0,0,1,907.136,725.28Z" transform="translate(-269.3719 -690.0123)"/><path class="cls-1" d="M905.9778,787.7939a1.2723,1.2723,0,0,1,1.5371.8955.1341.1341,0,0,0,.0039.0313l8.9135,35.7549a.1419.1419,0,0,0,.0137.0337,1.275,1.275,0,0,1-.9365,1.5156s-35.7754,8.918-35.7832,8.9214a1.2489,1.2489,0,0,1-.2818.0317,1.2737,1.2737,0,0,1-1.2368-.9673s-8.9131-35.7466-8.915-35.7558a1.2749,1.2749,0,0,1,.9292-1.5459c.0093-.0025,35.7148-8.9121,35.7148-8.9121A.2275.2275,0,0,0,905.9778,787.7939Z" transform="translate(-269.3719 -690.0123)"/><path class="cls-1" d="M853.1071,731.7944a1.27,1.27,0,0,1,.7852-.5806.1315.1315,0,0,0,.0386-.0161s35.707-8.8969,35.7163-8.8989a1.2931,1.2931,0,0,1,.3105-.0386,1.2734,1.2734,0,0,1,1.2276.9346c0,.0088,8.9175,35.7827,8.9175,35.7827a1.2731,1.2731,0,0,1-.8951,1.5454.2408.2408,0,0,0-.0312.0034L863.4216,769.44a.15.15,0,0,0-.0342.0137,1.2923,1.2923,0,0,1-.2729.03,1.2732,1.2732,0,0,1-1.2364-.9673.151.151,0,0,0-.0141-.0356l-8.897-35.6885a.1441.1441,0,0,0-.0039-.0318A1.2687,1.2687,0,0,1,853.1071,731.7944Z" transform="translate(-269.3719 -690.0123)"/><path class="cls-1" d="M802.344,751.4072a1.2673,1.2673,0,0,1,.7846-.5806.1463.1463,0,0,0,.0357-.0146l35.6894-8.8965a.1287.1287,0,0,0,.0308-.0034,1.2743,1.2743,0,0,1,1.5459.9287l8.9121,35.75a1.277,1.277,0,0,1-.8945,1.5449.14.14,0,0,0-.0313.0039l-35.7627,8.9136a.1522.1522,0,0,0-.0371.0152,1.2728,1.2728,0,0,1-1.5024-.9385s-8.9131-35.75-8.9141-35.7559A1.2671,1.2671,0,0,1,802.344,751.4072Z" transform="translate(-269.3719 -690.0123)"/><path class="cls-1" d="M609.7844,778.5967a.1445.1445,0,0,0,.0039-.0435s8.9092-35.7056,8.9111-35.7124a1.2748,1.2748,0,0,1,1.5464-.9287c.0083.0019,35.751,8.91,35.751,8.91a1.2882,1.2882,0,0,1,.79.5855,1.2681,1.2681,0,0,1,.148.9492c-.002.0044-8.9258,35.7695-8.9258,35.7695a.152.152,0,0,0-.0039.042,1.2724,1.2724,0,0,1-1.2256.9278,1.287,1.287,0,0,1-.2827-.0318.1281.1281,0,0,0-.0293-.0117s-35.7734-8.917-35.7822-8.9175a1.2756,1.2756,0,0,1-.9009-1.5385Z" transform="translate(-269.3719 -690.0123)"/><path class="cls-1" d="M541.7419,991.2964a1.33,1.33,0,0,1-1.2466.8691,1.2822,1.2822,0,0,1-.31-.0381l-35.76-8.92a.1613.1613,0,0,0-.0308-.0039,1.2752,1.2752,0,0,1-.8935-1.5371L512.404,945.94a.1323.1323,0,0,0,.0113-.0293,1.2753,1.2753,0,0,1,1.5468-.9287l35.72,8.9a.1526.1526,0,0,0,.0356.0147,1.2766,1.2766,0,0,1,.936,1.5156.13.13,0,0,0-.01.0273L541.73,991.1958A.1534.1534,0,0,0,541.7419,991.2964Z" transform="translate(-269.3719 -690.0123)"/><path class="cls-1" d="M500.7619,932.2846a.1318.1318,0,0,0-.0039.0362,1.2725,1.2725,0,0,1-1.228.9346,1.254,1.254,0,0,1-.2759-.03.136.136,0,0,0-.0342-.0137s-35.78-8.918-35.7895-8.918a1.2774,1.2774,0,0,1-.8945-1.5371.1448.1448,0,0,0,.0039-.0351l8.8935-35.6822a.1256.1256,0,0,0,.0171-.0385,1.2725,1.2725,0,0,1,1.5464-.9287.1432.1432,0,0,0,.0317.0039l35.6914,8.8979a.1292.1292,0,0,0,.0323.0132,1.2751,1.2751,0,0,1,.938,1.5078.1392.1392,0,0,0-.0147.0352Z" transform="translate(-269.3719 -690.0123)"/><path class="cls-1" d="M517.4709,930.81a1.2751,1.2751,0,0,1-.9062-1.54.1557.1557,0,0,0,.0039-.04l8.8945-35.6778a.1214.1214,0,0,0,.0166-.0381,1.275,1.275,0,0,1,1.5464-.9282c.0073.0015,35.7519,8.9107,35.7519,8.9107a1.283,1.283,0,0,1,.94,1.5151.1372.1372,0,0,0-.0142.0342l-8.9136,35.7554a.1448.1448,0,0,0-.0039.0351,1.2726,1.2726,0,0,1-1.2265.9336,1.2534,1.2534,0,0,1-.2827-.0322.1494.1494,0,0,0-.0289-.0108S517.4763,930.811,517.4709,930.81Z" transform="translate(-269.3719 -690.0123)"/><path class="cls-1" d="M530.5417,878.4165a1.2764,1.2764,0,0,1-.9131-1.542.1444.1444,0,0,0,.0034-.0479s8.9092-35.7,8.9117-35.708a1.2718,1.2718,0,0,1,1.2363-.9673,1.2859,1.2859,0,0,1,.2895.0333c.0044.0014,35.77,8.9179,35.77,8.9179a1.28,1.28,0,0,1,.9433,1.5142.13.13,0,0,0-.01.0273l-8.9136,35.7627a1.2719,1.2719,0,0,1-1.5459.9287S530.5461,878.417,530.5417,878.4165Z" transform="translate(-269.3719 -690.0123)"/><path class="cls-1" d="M567.3278,948.8833a.1511.1511,0,0,0,.0035-.0488s8.9091-35.6973,8.9116-35.7066a1.2741,1.2741,0,0,1,1.5459-.9292l35.75,8.9111a1.28,1.28,0,0,1,.791.585,1.2653,1.2653,0,0,1,.1494.9424c-.0029.0068-8.9209,35.7764-8.9209,35.7764a1.2726,1.2726,0,0,1-1.5205.9375.15.15,0,0,0-.0283-.0108s-35.7734-8.918-35.7827-8.918A1.2769,1.2769,0,0,1,567.3278,948.8833Z" transform="translate(-269.3719 -690.0123)"/><path class="cls-1" d="M626.6081,868.7182a1.2769,1.2769,0,0,1,.9365,1.5147.1715.1715,0,0,0-.0122.0312L618.6189,906.02a.14.14,0,0,0-.0039.0293,1.2744,1.2744,0,0,1-1.5386.9s-35.772-8.9194-35.7774-8.92a1.277,1.277,0,0,1-.9077-1.541.1477.1477,0,0,0,.0039-.0332l8.897-35.688a.1464.1464,0,0,0,.0142-.0347,1.2719,1.2719,0,0,1,1.5459-.9287C590.8576,859.8047,626.6,868.7163,626.6081,868.7182Z" transform="translate(-269.3719 -690.0123)"/><path class="cls-1" d="M593.4548,844.0913a.145.145,0,0,0,.0039-.0405l8.8936-35.6758a.12.12,0,0,0,.0175-.0386,1.2747,1.2747,0,0,1,1.5464-.9292.3559.3559,0,0,0,.041.0039l35.71,8.91a1.2783,1.2783,0,0,1,.94,1.5224c-.0029.0059-8.9277,35.7745-8.9277,35.7745a.139.139,0,0,0-.0034.0449,1.2722,1.2722,0,0,1-1.5361.8906l-35.7574-8.916a1.2746,1.2746,0,0,1-.9277-1.5459Z" transform="translate(-269.3719 -690.0123)"/><path class="cls-1" d="M605.0271,1020.893a.139.139,0,0,0,.0034-.0449l8.91-35.7119a1.2762,1.2762,0,0,1,1.5474-.9277.1654.1654,0,0,0,.03.0039l35.7192,8.9043a1.2864,1.2864,0,0,1,.9419,1.5244c-.0034.0078-8.9224,35.78-8.9224,35.78a1.2706,1.2706,0,0,1-1.2358.9707,1.2879,1.2879,0,0,1-.2793-.03.1168.1168,0,0,0-.0337-.0147l-35.7554-8.914a.2336.2336,0,0,0-.0346-.0039A1.2769,1.2769,0,0,1,605.0271,1020.893Z" transform="translate(-269.3719 -690.0123)"/><path class="cls-1" d="M618.99,970.0356a1.2759,1.2759,0,0,1-.899-1.539l8.9-35.7188a.1451.1451,0,0,0,.0152-.0361,1.274,1.274,0,0,1,1.5459-.93c.0088.0019,35.7251,8.9033,35.7251,8.9033a.1621.1621,0,0,0,.0307.0117,1.2779,1.2779,0,0,1,.938,1.51.15.15,0,0,0-.0141.0342l-8.9131,35.7558a.1426.1426,0,0,0-.0039.0323,1.2752,1.2752,0,0,1-1.5391.8994S618.9978,970.0366,618.99,970.0356Z" transform="translate(-269.3719 -690.0123)"/><path class="cls-1" d="M632.0583,917.6411a1.277,1.277,0,0,1-.9043-1.54.1492.1492,0,0,0,.0039-.044l8.8926-35.6709a.1333.1333,0,0,0,.0186-.0405,1.2746,1.2746,0,0,1,1.5463-.9292c.0049.001,35.75,8.9116,35.75,8.9116a1.2819,1.2819,0,0,1,.79.584,1.2634,1.2634,0,0,1,.1435.9648l-8.9209,35.7554a.1557.1557,0,0,0-.0039.04,1.2718,1.2718,0,0,1-1.2256.9278,1.3027,1.3027,0,0,1-.2871-.0322.107.107,0,0,0-.0254-.01S632.0661,917.6421,632.0583,917.6411Z" transform="translate(-269.3719 -690.0123)"/><path class="cls-1" d="M645.1467,865.251a1.2748,1.2748,0,0,1-.9287-1.5459l8.9038-35.7271a.1326.1326,0,0,0,.0112-.0288,1.2741,1.2741,0,0,1,1.5459-.9292l35.7422,8.91a.14.14,0,0,0,.0488.0087,1.2781,1.2781,0,0,1,.9034,1.504.1232.1232,0,0,0-.0132.0327l-8.9136,35.7549a1.267,1.267,0,0,1-1.2339.9741,1.2828,1.2828,0,0,1-.31-.0386S645.1511,865.2524,645.1467,865.251Z" transform="translate(-269.3719 -690.0123)"/><path class="cls-1" d="M559.01,758.8838l8.9116-35.62a.13.13,0,0,0,.0151-.0357,1.2741,1.2741,0,0,1,1.5459-.9292c.0088.002,35.7281,8.9038,35.7281,8.9038a.1218.1218,0,0,0,.0283.0112,1.2768,1.2768,0,0,1,.9365,1.5132.1363.1363,0,0,0-.0127.0318l-8.9136,35.7549a.1381.1381,0,0,0-.0039.0312,1.272,1.272,0,0,1-1.5385.9s-35.7759-8.9214-35.7828-8.9219a1.2748,1.2748,0,0,1-.9023-1.539A.1645.1645,0,0,0,559.01,758.8838Z" transform="translate(-269.3719 -690.0123)"/><path class="cls-1" d="M553.153,787.7939a.3469.3469,0,0,0,.042.0039l35.712,8.91a1.2757,1.2757,0,0,1,.94,1.5068.1423.1423,0,0,0-.0142.0347L580.92,834.0049a.1381.1381,0,0,0-.0039.0346,1.2743,1.2743,0,0,1-1.5385.9s-35.75-8.9131-35.7564-8.915a1.2768,1.2768,0,0,1-.9287-1.5464.14.14,0,0,0,.0039-.0313l8.898-35.6923a.1184.1184,0,0,0,.0131-.0323,1.2724,1.2724,0,0,1,1.5459-.9287Z" transform="translate(-269.3719 -690.0123)"/><path class="cls-1" d="M504.9929,752.4692a.1938.1938,0,0,0,.0039-.0288l8.8989-35.6958a.1323.1323,0,0,0,.0122-.0312,1.2731,1.2731,0,0,1,1.2364-.9673,1.2867,1.2867,0,0,1,.3095.0385.147.147,0,0,0,.0327.004l35.69,8.8974a.1292.1292,0,0,0,.0332.0137,1.2754,1.2754,0,0,1,.938,1.51.1277.1277,0,0,0-.0137.0332L543.22,761.9975a.153.153,0,0,0-.0039.0328,1.2727,1.2727,0,0,1-1.229.9384,1.2882,1.2882,0,0,1-.31-.0385s-35.78-8.9234-35.79-8.9239a1.2743,1.2743,0,0,1-.895-1.5371Z" transform="translate(-269.3719 -690.0123)"/><path class="cls-1" d="M488.6633,817.9638a.1514.1514,0,0,0,.0039-.0327l8.8975-35.6894a.13.13,0,0,0,.0136-.0337,1.2744,1.2744,0,0,1,1.5459-.9282l35.7539,8.9121a1.2773,1.2773,0,0,1,.9395,1.5088.1465.1465,0,0,0-.0132.0332l-8.9136,35.7622a.1938.1938,0,0,0-.0039.0288,1.2735,1.2735,0,0,1-1.5395.9L489.5925,819.51a1.2747,1.2747,0,0,1-.9292-1.5464Z" transform="translate(-269.3719 -690.0123)"/><path class="cls-1" d="M521.81,842.5864a1.2841,1.2841,0,0,1,.7905.585,1.2642,1.2642,0,0,1,.1494.9438c-.0029.0064-8.92,35.7754-8.92,35.7754a.1471.1471,0,0,0,.0122.1,1.332,1.332,0,0,1-1.2475.8692,1.2633,1.2633,0,0,1-.3106-.0386s-35.7769-8.9214-35.7861-8.9219a1.2753,1.2753,0,0,1-.898-1.5391.1491.1491,0,0,0,.0034-.0488s8.9087-35.6992,8.9107-35.7065a1.2731,1.2731,0,0,1,1.5469-.9287C486.0671,833.6772,521.81,842.5864,521.81,842.5864Z" transform="translate(-269.3719 -690.0123)"/><path class="cls-1" d="M446.614,711.3491a1.2776,1.2776,0,0,1,1.2754-1.2754.1413.1413,0,0,0,.0434-.0068H484.7a.1278.1278,0,0,0,.04.0068,1.2769,1.2769,0,0,1,1.2749,1.2422c-.0019.0093-.0029,36.8774-.0029,36.8774a1.2738,1.2738,0,0,1-1.24,1.2818.1365.1365,0,0,0-.0371-.0049h-36.85a.1507.1507,0,0,0-.0362.0044A1.278,1.278,0,0,1,446.614,748.2l-.0049-36.8155A.1235.1235,0,0,0,446.614,711.3491Z" transform="translate(-269.3719 -690.0123)"/><path class="cls-1" d="M433.114,778.8491a1.2776,1.2776,0,0,1,1.2754-1.2754.1413.1413,0,0,0,.0434-.0068H471.2a.1278.1278,0,0,0,.04.0068,1.2771,1.2771,0,0,1,1.2749,1.2417c-.0019.0093-.0029,36.8779-.0029,36.8779a1.2738,1.2738,0,0,1-1.24,1.2818.1365.1365,0,0,0-.0371-.0049h-36.85a.1507.1507,0,0,0-.0362.0044A1.278,1.278,0,0,1,433.114,815.7l-.0049-36.8155A.1235.1235,0,0,0,433.114,778.8491Z" transform="translate(-269.3719 -690.0123)"/><path class="cls-1" d="M459.0153,832.8154c-.0019.0093-.0029,36.8779-.0029,36.8779a1.2738,1.2738,0,0,1-1.24,1.2818.1365.1365,0,0,0-.0371-.0049h-36.85a.1507.1507,0,0,0-.0362.0044A1.278,1.278,0,0,1,419.614,869.7l-.0049-36.8155a.1235.1235,0,0,0,.0049-.0356,1.2776,1.2776,0,0,1,1.2754-1.2754.1413.1413,0,0,0,.0434-.0068H457.7a.1278.1278,0,0,0,.04.0068A1.2771,1.2771,0,0,1,459.0153,832.8154Z" transform="translate(-269.3719 -690.0123)"/><path class="cls-1" d="M392.614,711.3491a1.2776,1.2776,0,0,1,1.2754-1.2754.1413.1413,0,0,0,.0434-.0068H430.7a.1278.1278,0,0,0,.04.0068,1.2769,1.2769,0,0,1,1.2749,1.2422c-.0019.0093-.0029,36.8774-.0029,36.8774a1.2738,1.2738,0,0,1-1.24,1.2818.1365.1365,0,0,0-.0371-.0049h-36.85a.1507.1507,0,0,0-.0362.0044A1.278,1.278,0,0,1,392.614,748.2l-.0049-36.8155A.1235.1235,0,0,0,392.614,711.3491Z" transform="translate(-269.3719 -690.0123)"/><path class="cls-1" d="M379.114,778.8491a1.2776,1.2776,0,0,1,1.2754-1.2754.1413.1413,0,0,0,.0434-.0068H417.2a.1278.1278,0,0,0,.04.0068,1.2771,1.2771,0,0,1,1.2749,1.2417c-.0019.0093-.0029,36.8779-.0029,36.8779a1.2738,1.2738,0,0,1-1.24,1.2818.1365.1365,0,0,0-.0371-.0049h-36.85a.1507.1507,0,0,0-.0362.0044A1.278,1.278,0,0,1,379.114,815.7l-.0049-36.8155A.1235.1235,0,0,0,379.114,778.8491Z" transform="translate(-269.3719 -690.0123)"/><path class="cls-1" d="M352.114,832.8491a1.2776,1.2776,0,0,1,1.2754-1.2754.1413.1413,0,0,0,.0434-.0068H390.2a.1278.1278,0,0,0,.04.0068,1.2771,1.2771,0,0,1,1.2749,1.2417c-.0019.0093-.0029,36.8779-.0029,36.8779a1.2738,1.2738,0,0,1-1.24,1.2818.1365.1365,0,0,0-.0371-.0049h-36.85a.1507.1507,0,0,0-.0362.0044A1.278,1.278,0,0,1,352.114,869.7l-.0049-36.8155A.1235.1235,0,0,0,352.114,832.8491Z" transform="translate(-269.3719 -690.0123)"/><path class="cls-1" d="M311.6091,711.3862a.1342.1342,0,0,0,.0054-.0371,1.277,1.277,0,0,1,1.2754-1.2754.1418.1418,0,0,0,.0434-.0068H349.7a.1278.1278,0,0,0,.04.0068,1.2769,1.2769,0,0,1,1.2749,1.2422c-.0019.0093-.0029,36.8774-.0029,36.8774a1.2738,1.2738,0,0,1-1.24,1.2818.1365.1365,0,0,0-.0371-.0049h-36.85a.1459.1459,0,0,0-.0362.0044,1.2762,1.2762,0,0,1-1.2353-1.2744.167.167,0,0,0-.0357-.0943Z" transform="translate(-269.3719 -690.0123)"/><path class="cls-1" d="M344.2658,1031.6938a1.2781,1.2781,0,0,1-1.2417,1.28.14.14,0,0,0-.0351-.0039h-36.85a.1456.1456,0,0,0-.0352.0039,1.2764,1.2764,0,0,1-1.24-1.2744V994.8491a1.277,1.277,0,0,1,1.2754-1.2754.1281.1281,0,0,0,.0434-.0068h36.7661a.1165.1165,0,0,0,.041.0068,1.277,1.277,0,0,1,1.2754,1.2754Z" transform="translate(-269.3719 -690.0123)"/><path class="cls-1" d="M368.2224,985.7965A2.6959,2.6959,0,0,1,365.53,988.49H283.6765a2.6959,2.6959,0,0,1-2.6923-2.6933V933.5377a2.694,2.694,0,0,1,2.6806-2.7051h14.1836a2.6979,2.6979,0,0,1,2.6934,2.6817V978.27a.9943.9943,0,0,0,.9931.9932h2.375a.9943.9943,0,0,0,.9932-.9932V940.2857a.709.709,0,0,1,.708-.7089h37.9844a.709.709,0,0,1,.708.7089V978.27a.9941.9941,0,0,0,.9922.9932h2.376a.9943.9943,0,0,0,.9931-.9932V933.5372a2.6942,2.6942,0,0,1,2.68-2.7046H365.53a2.6992,2.6992,0,0,1,2.6923,2.6826Z" transform="translate(-269.3719 -690.0123)"/><path class="cls-1" d="M371.2658,923.6938a1.2781,1.2781,0,0,1-1.2417,1.28.14.14,0,0,0-.0351-.0039h-50.35a.1456.1456,0,0,0-.0352.0039,1.2764,1.2764,0,0,1-1.24-1.2744V886.8491a1.277,1.277,0,0,1,1.2754-1.2754.1418.1418,0,0,0,.0434-.0068h50.2661a.1291.1291,0,0,0,.041.0068,1.277,1.277,0,0,1,1.2754,1.2754Z" transform="translate(-269.3719 -690.0123)"/><path class="cls-1" d="M411.7658,1031.6938a1.2781,1.2781,0,0,1-1.2417,1.28.14.14,0,0,0-.0351-.0039h-36.85a.1456.1456,0,0,0-.0352.0039,1.2772,1.2772,0,0,1-1.24-1.2744V994.8491a1.2781,1.2781,0,0,1,1.2763-1.2754.1283.1283,0,0,0,.0435-.0068h36.7656a.1165.1165,0,0,0,.041.0068,1.277,1.277,0,0,1,1.2754,1.2754Z" transform="translate(-269.3719 -690.0123)"/><path class="cls-1" d="M432.0124,977.6938a1.2718,1.2718,0,0,1-1.2412,1.28.1461.1461,0,0,0-.0356-.0039h-36.85a.1384.1384,0,0,0-.0347.0039A1.2776,1.2776,0,0,1,392.614,977.7a.1644.1644,0,0,0-.0376-.0967l.0327-36.7178a.1269.1269,0,0,0,.0049-.0361,1.2781,1.2781,0,0,1,1.2763-1.2754.1283.1283,0,0,0,.0435-.0068H430.7a.1149.1149,0,0,0,.04.0068,1.2772,1.2772,0,0,1,1.2749,1.2422C432.0134,940.8247,432.0124,977.6938,432.0124,977.6938Z" transform="translate(-269.3719 -690.0123)"/><path class="cls-1" d="M445.5124,923.6938a1.2718,1.2718,0,0,1-1.2412,1.28.1461.1461,0,0,0-.0356-.0039h-36.85a.1384.1384,0,0,0-.0347.0039A1.2776,1.2776,0,0,1,406.114,923.7a.1644.1644,0,0,0-.0376-.0967l.0327-36.7183a.1235.1235,0,0,0,.0049-.0356,1.2776,1.2776,0,0,1,1.2754-1.2754.1413.1413,0,0,0,.0434-.0068H444.2a.1278.1278,0,0,0,.04.0068,1.2771,1.2771,0,0,1,1.2749,1.2417C445.5134,886.8247,445.5124,923.6938,445.5124,923.6938Z" transform="translate(-269.3719 -690.0123)"/><path class="cls-1" d="M450.36,976.688a1.2786,1.2786,0,0,1-.8882-1.5362s8.9131-35.748,8.915-35.7558a1.2748,1.2748,0,0,1,1.5464-.9287.1342.1342,0,0,0,.0337.0039l35.6841,8.8945a.1324.1324,0,0,0,.0381.0166,1.2758,1.2758,0,0,1,.9365,1.5137.1376.1376,0,0,0-.0107.0283l-8.9136,35.7549a1.2715,1.2715,0,0,1-1.5444.9346l-35.7593-8.9219A.2364.2364,0,0,0,450.36,976.688Z" transform="translate(-269.3719 -690.0123)"/><path class="cls-1" d="M516.3093,1009.4565c-.0039.0078-8.9233,35.7823-8.9233,35.7823a1.273,1.273,0,0,1-1.5464.9355l-35.7549-8.915a1.277,1.277,0,0,1-.9292-1.5459.134.134,0,0,0,.0034-.0459s8.91-35.7032,8.9116-35.711a1.2729,1.2729,0,0,1,1.2368-.9668,1.2889,1.2889,0,0,1,.2862.0323c.0058.0019,35.7724,8.92,35.7724,8.92a1.2747,1.2747,0,0,1,.9434,1.5146Z" transform="translate(-269.3719 -690.0123)"/><path class="cls-1" d="M581.8069,1025.7759a.1273.1273,0,0,0-.0162.0371l-8.9135,35.7549a.1473.1473,0,0,0-.0039.039,1.275,1.275,0,0,1-1.5381.8965s-35.7515-8.9141-35.7559-8.915a1.2763,1.2763,0,0,1-.9287-1.5459.1318.1318,0,0,0,.0039-.0362l8.896-35.6836a.1455.1455,0,0,0,.0151-.0361,1.2735,1.2735,0,0,1,1.2373-.9668,1.31,1.31,0,0,1,.295.0342l35.7666,8.917a1.2779,1.2779,0,0,1,.9424,1.5049Z" transform="translate(-269.3719 -690.0123)"/><path class="cls-1" d="M592.4861,1010.8462a1.274,1.274,0,0,1-1.2281.9326,1.2928,1.2928,0,0,1-.2734-.0293.1226.1226,0,0,0-.0366-.0156s-35.78-8.916-35.7886-8.917a1.2777,1.2777,0,0,1-.8955-1.5371.1461.1461,0,0,0,.0039-.0352l8.8965-35.6855a.1427.1427,0,0,0,.0146-.0352,1.2743,1.2743,0,0,1,1.5459-.9287.1355.1355,0,0,0,.0342.0039l35.6909,8.8984a.1287.1287,0,0,0,.0313.0127,1.277,1.277,0,0,1,.937,1.5078.1429.1429,0,0,0-.0147.0352l-8.9135,35.7549A.1411.1411,0,0,0,592.4861,1010.8462Z" transform="translate(-269.3719 -690.0123)"/><path class="cls-1" d="M690.2882,1052.2687,677.64,1102.997a2.6958,2.6958,0,0,1-3.264,1.962l-79.4221-19.8021a2.6958,2.6958,0,0,1-1.9608-3.2647l12.6425-50.7065a2.694,2.694,0,0,1,3.2554-1.9762l13.7624,3.4313a2.6978,2.6978,0,0,1,1.9646,3.2536l-10.8275,43.4264a.9943.9943,0,0,0,.7234,1.2039l2.3045.5746a.9944.9944,0,0,0,1.2039-.7234l9.1892-36.8561a.7091.7091,0,0,1,.8585-.5166l36.8561,9.1892a.7091.7091,0,0,1,.5155.8592l-9.1892,36.8561a.994.994,0,0,0,.7224,1.2037l2.3054.5748a.9944.9944,0,0,0,1.2039-.7234l10.8218-43.4042a2.694,2.694,0,0,1,3.2544-1.9759l13.7643,3.4317A2.6992,2.6992,0,0,1,690.2882,1052.2687Z" transform="translate(-269.3719 -690.0123)"/><polygon class="cls-1" points="388.941 345.627 388.943 345.627 388.946 345.628 388.941 345.627"/><path class="cls-1" d="M704.5774,1007.6958a.1394.1394,0,0,0-.0122.0312l-8.9136,35.7618a1.2679,1.2679,0,0,1-1.2339.9667,1.2835,1.2835,0,0,1-.31-.038l-35.7588-8.9161a1.277,1.277,0,0,1-.9262-1.5449l8.9038-35.7265a.15.15,0,0,0,.0112-.0293,1.274,1.274,0,0,1,1.5459-.93s35.75,8.914,35.7564,8.916A1.2768,1.2768,0,0,1,704.5774,1007.6958Z" transform="translate(-269.3719 -690.0123)"/><path class="cls-1" d="M707.7014,771.9546a.1257.1257,0,0,0-.0117.03s-8.917,35.7734-8.9175,35.7827a1.2749,1.2749,0,0,1-1.54.9043s-35.7788-8.9229-35.788-8.9234a1.2772,1.2772,0,0,1-.8965-1.5381l8.9023-35.7241a.1356.1356,0,0,0,.0127-.0317,1.2731,1.2731,0,0,1,1.5469-.9287.1388.1388,0,0,0,.0312.0039l35.69,8.8974a.1325.1325,0,0,0,.0337.0137,1.2764,1.2764,0,0,1,.937,1.5142Z" transform="translate(-269.3719 -690.0123)"/><path class="cls-1" d="M751.4367,771.9863a1.275,1.275,0,0,1,.9287-1.5459.1422.1422,0,0,0,.0362-.0146l35.6885-8.8965a.1469.1469,0,0,0,.0317-.0039,1.2719,1.2719,0,0,1,1.5361.8916.1345.1345,0,0,0,.0039.0307l8.9209,35.7554a1.2819,1.2819,0,0,1-.8989,1.5454.2483.2483,0,0,0-.0347.0034l-35.7548,8.9136a.1421.1421,0,0,0-.0376.0156,1.275,1.275,0,0,1-1.5049-.9389.15.15,0,0,0-.0147-.0367l-8.8965-35.684A.14.14,0,0,0,751.4367,771.9863Z" transform="translate(-269.3719 -690.0123)"/><path class="cls-1" d="M765.0188,1044.4145a.2655.2655,0,0,0-.0293.0108,1.2741,1.2741,0,0,1-1.5122-.9365.1418.1418,0,0,0-.0176-.0411l-8.8936-35.6816a.15.15,0,0,0-.0039-.0332,1.2763,1.2763,0,0,1,.9287-1.5459l35.7539-8.916a1.3618,1.3618,0,0,1,.3116-.0371,1.2741,1.2741,0,0,1,1.227.9287.1231.1231,0,0,0,.0034.0351l8.92,35.7549a1.275,1.275,0,0,1-.9282,1.55Z" transform="translate(-269.3719 -690.0123)"/><path class="cls-1" d="M883.8158,1080.2517l-79.4222,19.8022a2.6959,2.6959,0,0,1-3.2639-1.9621l-12.6425-50.7064a2.6941,2.6941,0,0,1,1.9465-3.2733l13.7623-3.4313a2.6979,2.6979,0,0,1,3.2622,1.95l10.8274,43.4265a.9942.9942,0,0,0,1.2039.7233l2.3044-.5745a.9946.9946,0,0,0,.7235-1.204l-9.1893-36.856a.709.709,0,0,1,.5154-.8592L850.7,1038.098a.709.709,0,0,1,.8585.5167l9.1892,36.856a.9942.9942,0,0,0,1.203.7236l2.3055-.5748a.9944.9944,0,0,0,.7234-1.2039l-10.8219-43.4041a2.6941,2.6941,0,0,1,1.9458-3.2726l13.7641-3.4317a2.6992,2.6992,0,0,1,3.2614,1.9515l12.648,50.7283A2.6958,2.6958,0,0,1,883.8158,1080.2517Z" transform="translate(-269.3719 -690.0123)"/><path class="cls-1" d="M904.7229,1002.2456a1.2691,1.2691,0,0,1-.752.5713.21.21,0,0,0-.0351.0039l-35.7554,8.9131a.1325.1325,0,0,0-.0391.0166,1.3215,1.3215,0,0,1-.269.0283,1.2726,1.2726,0,0,1-1.2363-.9668s-8.9131-35.7481-8.9151-35.7559a1.274,1.274,0,0,1,.9287-1.5459.1523.1523,0,0,0,.041-.0175l35.6861-8.8946a.1463.1463,0,0,0,.0293-.0029,1.2741,1.2741,0,0,1,1.5381.8994.14.14,0,0,0,.0039.0293l8.914,35.7549a.1656.1656,0,0,0,.0122.0322A1.267,1.267,0,0,1,904.7229,1002.2456Z" transform="translate(-269.3719 -690.0123)"/><path class="cls-1" d="M905.8488,939.7388a1.2756,1.2756,0,0,1-1.5136-.9366.1308.1308,0,0,0-.0122-.0312s-8.9009-35.7154-8.9029-35.7237a1.2772,1.2772,0,0,1,.9287-1.5468.1715.1715,0,0,0,.0357-.0142l35.7139-8.9028a1.5113,1.5113,0,0,1,.3164-.0357,1.2725,1.2725,0,0,1,1.2285.937c.001.0083,8.9179,35.7793,8.9179,35.7793a1.2513,1.2513,0,0,1-.14.9717,1.2641,1.2641,0,0,1-.7588.5733c-.0088,0-35.7832,8.9179-35.7832,8.9179A.1734.1734,0,0,0,905.8488,939.7388Z" transform="translate(-269.3719 -690.0123)"/><path class="cls-1" d="M908.4836,955.4429a1.2769,1.2769,0,0,1,.9292-1.5459.1786.1786,0,0,0,.0386-.0157l35.685-8.8955a.1231.1231,0,0,0,.0323-.0039,1.2741,1.2741,0,0,1,1.5351.8887.13.13,0,0,0,.0039.0332l8.9209,35.7627a1.2757,1.2757,0,0,1-.8935,1.5381.3378.3378,0,0,0-.0391.0029L918.94,992.1216a.1648.1648,0,0,0-.0381.0156,1.2423,1.2423,0,0,1-.2676.0283,1.2721,1.2721,0,0,1-1.2354-.9668l-8.9116-35.7217A.1586.1586,0,0,0,908.4836,955.4429Z" transform="translate(-269.3719 -690.0123)"/><path class="cls-1" d="M963.6335,1043.21a1.2685,1.2685,0,0,1-.7637.5742c-.0078.001-35.7978,8.9239-35.8066,8.9278a1.2406,1.2406,0,0,1-.2812.0312,1.272,1.272,0,0,1-1.2354-.9668.1658.1658,0,0,0-.0127-.0332s-8.9-35.7129-8.9023-35.7216a1.2772,1.2772,0,0,1,.9287-1.5469.1215.1215,0,0,0,.0322-.0127l35.7168-8.9043a1.4888,1.4888,0,0,1,.3174-.0361,1.2711,1.2711,0,0,1,1.2275.9375c.001.0078,8.918,35.78,8.918,35.78A1.2535,1.2535,0,0,1,963.6335,1043.21Z" transform="translate(-269.3719 -690.0123)"/><path class="cls-1" d="M1008.7673,976.69a.2188.2188,0,0,0-.043.002L972.97,985.6128a.1954.1954,0,0,0-.0293.0107,1.4852,1.4852,0,0,1-.2764.0283,1.272,1.272,0,0,1-1.2363-.9677l-8.91-35.7178a.17.17,0,0,0-.0039-.0381,1.2757,1.2757,0,0,1,.9277-1.5459.1512.1512,0,0,0,.041-.0176l35.6788-8.8935a.1557.1557,0,0,0,.1044-.042.1808.1808,0,0,0,.0528.0049c.0488,0,.1191-.0059.1885-.0059a1.2733,1.2733,0,0,1,1.2275.9287.1259.1259,0,0,0,.0029.0381l8.9209,35.7549A1.282,1.282,0,0,1,1008.7673,976.69Z" transform="translate(-269.3719 -690.0123)"/><path class="cls-1" d="M1014.8513,924.9741a1.2786,1.2786,0,0,1-1.2354-1.2744.1373.1373,0,0,0-.0068-.044V886.89a.1125.1125,0,0,0,.0068-.041,1.2785,1.2785,0,0,1,1.2764-1.2754.1516.1516,0,0,0,.0439-.0068h36.7989a1.3071,1.3071,0,0,1,.91.38,1.2661,1.2661,0,0,1,.3731.8575.1307.1307,0,0,0-.0059.039v36.85a.1506.1506,0,0,0,.0059.042,1.2747,1.2747,0,0,1-1.2735,1.2393l.044.0107-36.9033-.0156A.1319.1319,0,0,0,1014.8513,924.9741Z" transform="translate(-269.3719 -690.0123)"/><path class="cls-1" d="M1059.7663,1031.6938a1.2792,1.2792,0,0,1-1.2422,1.28.1448.1448,0,0,0-.0351-.0039h-36.85a.1408.1408,0,0,0-.0352.0039,1.277,1.277,0,0,1-1.2412-1.2744V994.8491a1.2768,1.2768,0,0,1,1.2744-1.2754.13.13,0,0,0,.044-.0068h36.7656a.1217.1217,0,0,0,.042.0068,1.2793,1.2793,0,0,1,1.2773,1.2754Z" transform="translate(-269.3719 -690.0123)"/><path class="cls-1" d="M1068.8513,924.9741a1.2786,1.2786,0,0,1-1.2354-1.2744.1373.1373,0,0,0-.0068-.044V886.89a.1125.1125,0,0,0,.0068-.041,1.2785,1.2785,0,0,1,1.2764-1.2754.1516.1516,0,0,0,.0439-.0068h36.7989a1.3071,1.3071,0,0,1,.91.38,1.2661,1.2661,0,0,1,.3731.8575.1307.1307,0,0,0-.0059.039v36.85a.1506.1506,0,0,0,.0059.042,1.2747,1.2747,0,0,1-1.2735,1.2393l.044.0107-36.9033-.0156A.1319.1319,0,0,0,1068.8513,924.9741Z" transform="translate(-269.3719 -690.0123)"/><path class="cls-1" d="M1178.1828,934.4979v51.3037a2.6959,2.6959,0,0,1-2.6923,2.6934H1093.637a2.6959,2.6959,0,0,1-2.6924-2.6934V933.5428a2.694,2.694,0,0,1,2.6806-2.7051h14.1836a2.6979,2.6979,0,0,1,2.6934,2.6817v44.7558a.9943.9943,0,0,0,.9931.9932h2.375a.9943.9943,0,0,0,.9932-.9932V940.2909a.7091.7091,0,0,1,.708-.709h37.9844a.7091.7091,0,0,1,.708.709v37.9843a.9941.9941,0,0,0,.9922.9932h2.376a.9943.9943,0,0,0,.9931-.9932V934.4979" transform="translate(-269.3719 -690.0123)"/><path class="cls-1" d="M1158.6252,934.4979h-24.4936a2.6959,2.6959,0,0,1-2.6924-2.6934V879.5458a2.694,2.694,0,0,1,2.6807-2.7051h14.1836a2.6978,2.6978,0,0,1,2.6934,2.6816v44.7559a.9943.9943,0,0,0,.9931.9931h2.375a.9943.9943,0,0,0,.9932-.9931V886.2938a.7091.7091,0,0,1,.708-.709h37.9844a.7091.7091,0,0,1,.708.709v37.9844a.9941.9941,0,0,0,.9922.9931h2.3759a.9943.9943,0,0,0,.9932-.9931V879.5453a2.694,2.694,0,0,1,2.68-2.7046h14.1855a2.6993,2.6993,0,0,1,2.6924,2.6826v52.2812a2.6959,2.6959,0,0,1-2.6924,2.6934h-37.8023" transform="translate(-269.3719 -690.0123)"/><path class="cls-1" d="M1127.2663,1031.6938a1.2792,1.2792,0,0,1-1.2422,1.28.1448.1448,0,0,0-.0351-.0039h-36.85a.1408.1408,0,0,0-.0352.0039,1.277,1.277,0,0,1-1.2412-1.2744V994.8491a1.2768,1.2768,0,0,1,1.2744-1.2754.13.13,0,0,0,.044-.0068h36.7656a.1217.1217,0,0,0,.042.0068,1.2793,1.2793,0,0,1,1.2773,1.2754Z" transform="translate(-269.3719 -690.0123)"/><path class="cls-1" d="M1188.0183,1031.7358a1.2759,1.2759,0,0,1-1.2735,1.2393l.044.0107-36.9033-.0156a.1319.1319,0,0,0-.0342.0039,1.2786,1.2786,0,0,1-1.2354-1.2744.1373.1373,0,0,0-.0068-.044V994.89a.1125.1125,0,0,0,.0068-.041,1.2783,1.2783,0,0,1,1.2754-1.2754.1293.1293,0,0,0,.044-.0068h36.8a1.29,1.29,0,0,1,1.2832,1.2383.13.13,0,0,0-.0059.039v36.85A.1506.1506,0,0,0,1188.0183,1031.7358Z" transform="translate(-269.3719 -690.0123)"/><path class="cls-1" d="M1242.0183,1031.7358a1.2759,1.2759,0,0,1-1.2735,1.2393l.044.0107-36.9033-.0156a.1319.1319,0,0,0-.0342.0039,1.2786,1.2786,0,0,1-1.2354-1.2744.1373.1373,0,0,0-.0068-.044V994.89a.1125.1125,0,0,0,.0068-.041,1.2783,1.2783,0,0,1,1.2754-1.2754.1293.1293,0,0,0,.044-.0068h36.8a1.29,1.29,0,0,1,1.2832,1.2383.13.13,0,0,0-.0059.039v36.85A.1506.1506,0,0,0,1242.0183,1031.7358Z" transform="translate(-269.3719 -690.0123)"/><path class="cls-1" d="M1066.5183,977.7358a1.2759,1.2759,0,0,1-1.2735,1.2393l.044.0107-36.9033-.0156a.1319.1319,0,0,0-.0342.0039,1.2786,1.2786,0,0,1-1.2354-1.2744.1373.1373,0,0,0-.0068-.044V940.89a.1125.1125,0,0,0,.0068-.041,1.2783,1.2783,0,0,1,1.2754-1.2754.1293.1293,0,0,0,.044-.0068h36.8a1.29,1.29,0,0,1,1.2832,1.2383.13.13,0,0,0-.0059.039v36.85A.1506.1506,0,0,0,1066.5183,977.7358Z" transform="translate(-269.3719 -690.0123)"/><path class="cls-1" d="M1242.0183,977.7358a1.2759,1.2759,0,0,1-1.2735,1.2393l.044.0107-36.9033-.0156a.1319.1319,0,0,0-.0342.0039,1.2786,1.2786,0,0,1-1.2354-1.2744.1373.1373,0,0,0-.0068-.044V940.89a.1125.1125,0,0,0,.0068-.041,1.2783,1.2783,0,0,1,1.2754-1.2754.1293.1293,0,0,0,.044-.0068h36.8a1.29,1.29,0,0,1,1.2832,1.2383.13.13,0,0,0-.0059.039v36.85A.1506.1506,0,0,0,1242.0183,977.7358Z" transform="translate(-269.3719 -690.0123)"/><path class="cls-1" d="M1240.7439,749.4756l.0556.0156-36.914-.021a.1489.1489,0,0,0-.0362.0044,1.2792,1.2792,0,0,1-1.2334-1.2744.1412.1412,0,0,0-.041-.1l.0342-36.71a.117.117,0,0,0,.0068-.0415,1.2783,1.2783,0,0,1,1.2754-1.2754.1428.1428,0,0,0,.044-.0068h36.8a1.29,1.29,0,0,1,1.2832,1.2383.13.13,0,0,0-.0059.039v36.8491a.1416.1416,0,0,0,.041.1A1.3192,1.3192,0,0,1,1240.7439,749.4756Z" transform="translate(-269.3719 -690.0123)"/><path class="cls-1" d="M1296.0183,1031.7358a1.2759,1.2759,0,0,1-1.2735,1.2393l.0508.0137-36.91-.0186a.1319.1319,0,0,0-.0342.0039,1.2786,1.2786,0,0,1-1.2354-1.2744.1373.1373,0,0,0-.0068-.044V994.89a.1125.1125,0,0,0,.0068-.041,1.2783,1.2783,0,0,1,1.2754-1.2754.1293.1293,0,0,0,.044-.0068h36.7685a.11.11,0,0,0,.0391.0068,1.2775,1.2775,0,0,1,1.2754,1.2315.13.13,0,0,0-.0059.039v36.85A.1506.1506,0,0,0,1296.0183,1031.7358Z" transform="translate(-269.3719 -690.0123)"/><path class="cls-1" d="M1294.7439,749.4756l.0634.02-36.9218-.0254a.1489.1489,0,0,0-.0362.0044,1.2792,1.2792,0,0,1-1.2334-1.2744.1412.1412,0,0,0-.041-.1l.0342-36.71a.117.117,0,0,0,.0068-.0415,1.2783,1.2783,0,0,1,1.2754-1.2754.1428.1428,0,0,0,.044-.0068h36.7685a.1219.1219,0,0,0,.0391.0068,1.2775,1.2775,0,0,1,1.2754,1.2315.13.13,0,0,0-.0059.039v36.8491a.1416.1416,0,0,0,.041.1A1.3192,1.3192,0,0,1,1294.7439,749.4756Z" transform="translate(-269.3719 -690.0123)"/><path class="cls-1" d="M1324.1091,832.8906a.117.117,0,0,0,.0068-.0415,1.2785,1.2785,0,0,1,1.2764-1.2754.1516.1516,0,0,0,.0439-.0068h36.7676a.1219.1219,0,0,0,.0391.0068,1.2759,1.2759,0,0,1,1.2754,1.231.1307.1307,0,0,0-.0059.039v36.85a.1416.1416,0,0,0,.041.1,1.3192,1.3192,0,0,1-1.31,1.1822l.0634.02-36.9209-.0254a.1475.1475,0,0,0-.0361.0044,1.2774,1.2774,0,0,1-1.2344-1.2744.1412.1412,0,0,0-.041-.1Z" transform="translate(-269.3719 -690.0123)"/><path class="cls-1" d="M1363.5183,923.7358a1.2759,1.2759,0,0,1-1.2735,1.2393l.0508.0137-36.9092-.0186a.1317.1317,0,0,0-.0341.0039,1.2774,1.2774,0,0,1-1.2364-1.2744.1373.1373,0,0,0-.0068-.044V886.89a.1125.1125,0,0,0,.0068-.041,1.2785,1.2785,0,0,1,1.2764-1.2754.1516.1516,0,0,0,.0439-.0068h36.7676a.1219.1219,0,0,0,.0391.0068,1.2759,1.2759,0,0,1,1.2754,1.231.1307.1307,0,0,0-.0059.039v36.85A.1506.1506,0,0,0,1363.5183,923.7358Z" transform="translate(-269.3719 -690.0123)"/><path class="cls-1" d="M1325.3523,978.9741a1.2774,1.2774,0,0,1-1.2364-1.2744.1373.1373,0,0,0-.0068-.044V940.89a.1125.1125,0,0,0,.0068-.041,1.2783,1.2783,0,0,1,1.2754-1.2754.1293.1293,0,0,0,.044-.0068h36.7685a.11.11,0,0,0,.0391.0068,1.2775,1.2775,0,0,1,1.2754,1.2315.13.13,0,0,0-.0059.039v36.85a.1506.1506,0,0,0,.0059.042,1.2759,1.2759,0,0,1-1.2735,1.2393l.0508.0137-36.9092-.0186A.1317.1317,0,0,0,1325.3523,978.9741Z" transform="translate(-269.3719 -690.0123)"/><path class="cls-1" d="M1414.4323,1039.8043a2.6959,2.6959,0,0,1-2.6923,2.6934h-81.8536a2.6959,2.6959,0,0,1-2.6923-2.6934V987.5455a2.694,2.694,0,0,1,2.6806-2.7051h14.1836a2.6979,2.6979,0,0,1,2.6934,2.6817v44.7558a.9943.9943,0,0,0,.9931.9932h2.375a.9943.9943,0,0,0,.9932-.9932V994.2936a.709.709,0,0,1,.708-.709h37.9844a.709.709,0,0,1,.708.709v37.9843a.9941.9941,0,0,0,.9922.9932h2.376a.9943.9943,0,0,0,.9931-.9932V987.545a2.6942,2.6942,0,0,1,2.68-2.7046H1411.74a2.6993,2.6993,0,0,1,2.6923,2.6827Z" transform="translate(-269.3719 -690.0123)"/><path class="cls-1" d="M1417.5183,977.7358a1.2759,1.2759,0,0,1-1.2735,1.2393l.044.0107-36.9024-.0156a.1317.1317,0,0,0-.0341.0039,1.2774,1.2774,0,0,1-1.2364-1.2744.1373.1373,0,0,0-.0068-.044V940.89a.1125.1125,0,0,0,.0068-.041,1.2783,1.2783,0,0,1,1.2754-1.2754.1293.1293,0,0,0,.044-.0068h36.8a1.29,1.29,0,0,1,1.2832,1.2383.13.13,0,0,0-.0059.039v36.85A.1506.1506,0,0,0,1417.5183,977.7358Z" transform="translate(-269.3719 -690.0123)"/><path class="cls-1" d="M1417.5183,923.7358a1.2759,1.2759,0,0,1-1.2735,1.2393l.044.0107-36.9024-.0156a.1317.1317,0,0,0-.0341.0039,1.2774,1.2774,0,0,1-1.2364-1.2744.1373.1373,0,0,0-.0068-.044V886.89a.1125.1125,0,0,0,.0068-.041,1.2785,1.2785,0,0,1,1.2764-1.2754.1516.1516,0,0,0,.0439-.0068h36.7989a1.3071,1.3071,0,0,1,.91.38,1.2661,1.2661,0,0,1,.3731.8575.1307.1307,0,0,0-.0059.039v36.85A.1506.1506,0,0,0,1417.5183,923.7358Z" transform="translate(-269.3719 -690.0123)"/><path class="cls-1" d="M1416.2439,870.9756l.0556.0156-36.9131-.021a.1475.1475,0,0,0-.0361.0044,1.2774,1.2774,0,0,1-1.2344-1.2744.1412.1412,0,0,0-.041-.1l.0342-36.71a.117.117,0,0,0,.0068-.0415,1.2785,1.2785,0,0,1,1.2764-1.2754.1516.1516,0,0,0,.0439-.0068h36.7989a1.3071,1.3071,0,0,1,.91.38,1.2661,1.2661,0,0,1,.3731.8575.1307.1307,0,0,0-.0059.039v36.85a.1416.1416,0,0,0,.041.1A1.3192,1.3192,0,0,1,1416.2439,870.9756Z" transform="translate(-269.3719 -690.0123)"/><path class="cls-1" d="M1416.2439,816.9756l.0556.0156-36.9131-.021a.1475.1475,0,0,0-.0361.0044,1.2774,1.2774,0,0,1-1.2344-1.2744.1412.1412,0,0,0-.041-.1l.0342-36.71a.117.117,0,0,0,.0068-.0415,1.2785,1.2785,0,0,1,1.2764-1.2754.1516.1516,0,0,0,.0439-.0068h36.7989a1.3071,1.3071,0,0,1,.91.38,1.2661,1.2661,0,0,1,.3731.8575.1307.1307,0,0,0-.0059.039v36.85a.1416.1416,0,0,0,.041.1A1.3192,1.3192,0,0,1,1416.2439,816.9756Z" transform="translate(-269.3719 -690.0123)"/><path class="cls-1" d="M1416.2439,749.4756l.0556.0156-36.9131-.021a.1475.1475,0,0,0-.0361.0044,1.2774,1.2774,0,0,1-1.2344-1.2744.1412.1412,0,0,0-.041-.1l.0342-36.71a.117.117,0,0,0,.0068-.0415,1.2783,1.2783,0,0,1,1.2754-1.2754.1428.1428,0,0,0,.044-.0068h36.8a1.29,1.29,0,0,1,1.2832,1.2383.13.13,0,0,0-.0059.039v36.8491a.1416.1416,0,0,0,.041.1A1.3192,1.3192,0,0,1,1416.2439,749.4756Z" transform="translate(-269.3719 -690.0123)"/><path class="cls-1" d="M1471.5183,1031.7358a1.2759,1.2759,0,0,1-1.2735,1.2393l.044.0107-36.9024-.0156a.1317.1317,0,0,0-.0341.0039,1.2774,1.2774,0,0,1-1.2364-1.2744.1373.1373,0,0,0-.0068-.044V994.89a.1125.1125,0,0,0,.0068-.041,1.2783,1.2783,0,0,1,1.2754-1.2754.1293.1293,0,0,0,.044-.0068h36.8a1.29,1.29,0,0,1,1.2832,1.2383.13.13,0,0,0-.0059.039v36.85A.1506.1506,0,0,0,1471.5183,1031.7358Z" transform="translate(-269.3719 -690.0123)"/><path class="cls-1" d="M1471.5183,977.7358a1.2759,1.2759,0,0,1-1.2735,1.2393l.044.0107-36.9024-.0156a.1317.1317,0,0,0-.0341.0039,1.2774,1.2774,0,0,1-1.2364-1.2744.1373.1373,0,0,0-.0068-.044V940.89a.1125.1125,0,0,0,.0068-.041,1.2783,1.2783,0,0,1,1.2754-1.2754.1293.1293,0,0,0,.044-.0068h36.8a1.29,1.29,0,0,1,1.2832,1.2383.13.13,0,0,0-.0059.039v36.85A.1506.1506,0,0,0,1471.5183,977.7358Z" transform="translate(-269.3719 -690.0123)"/><path class="cls-1" d="M1471.5183,923.7358a1.2759,1.2759,0,0,1-1.2735,1.2393l.044.0107-36.9024-.0156a.1317.1317,0,0,0-.0341.0039,1.2774,1.2774,0,0,1-1.2364-1.2744.1373.1373,0,0,0-.0068-.044V886.89a.1125.1125,0,0,0,.0068-.041,1.2785,1.2785,0,0,1,1.2764-1.2754.1516.1516,0,0,0,.0439-.0068h36.7989a1.3071,1.3071,0,0,1,.91.38,1.2661,1.2661,0,0,1,.3731.8575.1307.1307,0,0,0-.0059.039v36.85A.1506.1506,0,0,0,1471.5183,923.7358Z" transform="translate(-269.3719 -690.0123)"/><path class="cls-1" d="M1470.2439,870.9756l.0556.0156-36.9131-.021a.1475.1475,0,0,0-.0361.0044,1.2774,1.2774,0,0,1-1.2344-1.2744.1412.1412,0,0,0-.041-.1l.0342-36.71a.117.117,0,0,0,.0068-.0415,1.2785,1.2785,0,0,1,1.2764-1.2754.1516.1516,0,0,0,.0439-.0068h36.7989a1.3071,1.3071,0,0,1,.91.38,1.2661,1.2661,0,0,1,.3731.8575.1307.1307,0,0,0-.0059.039v36.85a.1416.1416,0,0,0,.041.1A1.3192,1.3192,0,0,1,1470.2439,870.9756Z" transform="translate(-269.3719 -690.0123)"/><path class="cls-1" d="M1470.2439,816.9756l.0556.0156-36.9131-.021a.1475.1475,0,0,0-.0361.0044,1.2774,1.2774,0,0,1-1.2344-1.2744.1412.1412,0,0,0-.041-.1l.0342-36.71a.117.117,0,0,0,.0068-.0415,1.2785,1.2785,0,0,1,1.2764-1.2754.1516.1516,0,0,0,.0439-.0068h36.7989a1.3071,1.3071,0,0,1,.91.38,1.2661,1.2661,0,0,1,.3731.8575.1307.1307,0,0,0-.0059.039v36.85a.1416.1416,0,0,0,.041.1A1.3192,1.3192,0,0,1,1470.2439,816.9756Z" transform="translate(-269.3719 -690.0123)"/><path class="cls-1" d="M1470.2439,749.4756l.0556.0156-36.9131-.021a.1475.1475,0,0,0-.0361.0044,1.2774,1.2774,0,0,1-1.2344-1.2744.1412.1412,0,0,0-.041-.1l.0342-36.71a.117.117,0,0,0,.0068-.0415,1.2783,1.2783,0,0,1,1.2754-1.2754.1428.1428,0,0,0,.044-.0068h36.8a1.29,1.29,0,0,1,1.2832,1.2383.13.13,0,0,0-.0059.039v36.8491a.1416.1416,0,0,0,.041.1A1.3192,1.3192,0,0,1,1470.2439,749.4756Z" transform="translate(-269.3719 -690.0123)"/><path class="cls-1" d="M1524.8091,1005.977h-37.9844a.9943.9943,0,0,0-.9932.9931v2.375a.9943.9943,0,0,0,.9932.9932h44.32v-48.123h-44.32a.9943.9943,0,0,0-.9932.9931v2.376a.9941.9941,0,0,0,.9932.9922h37.9844a.709.709,0,0,1,.7089.708v37.9844A.709.709,0,0,1,1524.8091,1005.977Z" transform="translate(-269.3719 -690.0123)"/></svg>